{"glyphs":{":":{"x_min":0,"x_max":255,"ha":255,"o":"m 55 64 q 55 93 76 114 q 98 136 128 136 q 159 136 180 114 q 201 91 201 62 q 201 33 180 11 q 159 -11 129 -11 q 98 -11 76 11 q 55 33 55 64 z m 55 350 q 55 379 76 400 q 98 421 128 421 q 159 421 180 398 q 201 376 201 347 q 201 318 180 296 q 159 274 129 274 q 98 274 76 296 q 55 319 55 350 z"},"$":{"x_min":0,"x_max":505,"ha":505,"o":"m 259 626 q 268 626 277 626 l 281 652 q 287 652 303 651 q 319 650 319 645 l 315 621 q 340 618 364 612 q 389 606 416 600 q 420 563 422 525 q 424 487 426 444 q 422 439 416 439 q 416 439 414 439 q 410 439 400 440 q 389 440 388 445 q 385 466 374 491 q 364 516 348 539 q 331 562 308 575 l 276 382 q 287 374 298 367 q 309 360 319 353 q 342 338 366 324 q 391 309 412 290 q 432 270 444 240 q 457 210 457 163 q 457 111 428 72 q 398 34 352 12 q 305 -10 253 -10 q 235 -10 213 -8 l 208 -39 q 201 -39 186 -37 q 170 -35 170 -30 l 174 -4 q 149 0 124 5 q 98 10 75 15 q 70 36 66 68 q 61 101 58 131 q 54 161 53 174 q 56 179 66 183 q 76 187 80 187 q 91 187 92 179 q 95 160 107 135 q 119 110 138 86 q 157 62 183 47 l 217 261 q 212 265 206 268 q 201 272 196 275 q 162 298 131 321 q 100 344 80 376 q 60 408 60 457 q 60 506 90 544 q 119 582 165 604 q 211 626 259 626 z m 253 237 l 219 32 q 231 29 243 29 q 261 29 282 36 q 303 44 318 64 q 334 84 334 121 q 334 157 308 186 q 283 215 253 237 z m 242 410 l 270 587 q 267 587 264 587 q 246 587 228 580 q 209 572 196 554 q 184 537 184 506 q 184 481 200 456 q 217 432 242 410 z"},"?":{"x_min":0,"x_max":389,"ha":389,"o":"m 113 506 q 85 506 69 526 q 53 546 53 570 q 53 583 58 597 q 62 611 67 615 q 78 621 98 626 q 119 632 155 632 q 168 632 192 627 q 217 622 245 610 q 273 599 298 580 q 323 560 340 530 q 356 501 356 460 q 356 417 336 390 q 316 362 288 344 q 259 325 233 309 q 214 296 190 282 q 166 268 153 250 q 149 244 148 234 q 148 223 148 215 q 148 211 148 209 q 147 205 142 198 q 138 191 134 191 q 128 191 121 196 q 114 200 111 203 q 106 215 99 244 q 92 272 92 301 q 92 330 104 350 q 116 371 134 386 q 153 401 170 412 q 195 428 218 447 q 242 466 258 485 q 273 504 273 520 q 273 536 260 551 q 247 566 221 566 q 204 566 186 551 q 169 536 152 521 q 134 506 113 506 z m 65 64 q 65 95 86 116 q 108 136 136 136 q 167 136 188 115 q 209 94 209 64 q 209 34 189 12 q 169 -11 140 -11 q 113 -11 89 10 q 65 31 65 64 z"},"<":{"x_min":0,"x_max":483,"ha":483,"o":"m 434 44 q 434 41 432 26 q 429 12 425 -2 q 421 -15 418 -15 q 417 -15 413 -13 l 47 173 q 36 179 32 189 q 29 199 29 212 q 29 220 34 226 q 40 231 47 235 l 411 418 q 415 420 416 420 q 422 420 433 364 q 434 360 432 358 q 430 355 430 355 l 119 204 l 431 50 q 431 50 432 49 q 434 48 434 44 z"},"'":{"x_min":0,"x_max":176,"ha":176,"o":"m 104 694 q 116 694 126 689 q 136 684 141 673 q 137 627 132 568 q 127 509 118 459 q 115 455 108 449 q 101 443 93 440 q 86 440 81 446 q 65 489 48 534 q 32 578 32 612 q 32 644 52 669 q 73 694 104 694 z"},"=":{"x_min":0,"x_max":545,"ha":545,"o":"m 465 271 l 69 271 q 63 271 64 284 q 66 298 72 312 q 78 327 85 329 l 478 329 q 485 329 484 316 q 483 303 478 289 q 472 275 465 271 z m 465 131 l 69 131 q 63 131 64 144 q 66 157 72 172 q 78 186 85 188 l 478 188 q 485 188 484 175 q 483 162 478 148 q 472 135 465 131 z"},"a":{"x_min":0,"x_max":460,"ha":460,"o":"m 242 438 q 283 438 316 419 q 349 400 369 366 q 389 333 389 289 l 389 106 q 389 87 396 76 q 402 66 412 66 q 423 66 430 70 q 437 75 440 76 q 447 73 447 60 q 447 52 443 45 q 436 39 420 26 q 404 14 384 4 q 364 -6 343 -6 q 319 -6 298 10 q 276 26 269 43 q 265 39 244 26 q 224 14 200 3 q 176 -8 158 -8 q 121 -8 92 10 q 63 27 46 54 q 30 82 30 111 q 30 140 46 162 q 62 183 81 189 q 100 195 133 208 q 166 221 202 235 q 237 249 262 258 l 262 304 q 262 341 246 371 q 230 401 204 401 q 176 401 166 376 q 155 352 147 319 q 143 303 131 290 q 119 276 93 276 q 74 276 58 290 q 42 303 42 323 q 42 333 46 343 q 50 353 56 363 q 61 368 78 380 q 96 392 122 406 q 148 419 179 428 q 210 438 242 438 z m 222 61 q 240 61 251 69 q 262 77 262 81 l 262 218 q 247 211 230 204 q 212 197 197 187 q 177 174 169 156 q 161 137 162 121 q 163 90 183 76 q 203 61 222 61 z"},"L":{"x_min":0,"x_max":565,"ha":565,"o":"m 245 138 q 245 138 245 136 q 245 131 245 116 q 245 102 246 86 q 248 70 252 61 q 257 51 277 46 q 297 41 316 41 l 380 41 q 408 41 432 49 q 455 57 471 73 q 487 89 499 111 q 511 133 524 166 q 526 172 537 172 q 545 172 555 170 q 565 168 567 166 q 558 140 547 109 q 536 78 527 49 q 518 20 514 -2 l 177 -2 q 125 -2 86 -2 q 47 -3 37 -3 q 34 2 34 15 q 33 28 37 33 q 44 34 58 36 q 72 37 85 40 q 98 44 100 50 q 106 65 107 88 q 108 111 108 142 l 108 501 q 108 533 107 556 q 106 578 100 593 q 98 600 85 604 q 72 607 58 608 q 44 610 37 610 q 33 615 34 628 q 34 642 37 646 q 66 643 106 642 q 146 640 177 640 q 208 640 248 642 q 287 643 315 646 q 318 642 318 628 q 319 615 315 610 q 309 610 294 608 q 280 607 268 604 q 255 600 252 593 q 247 580 246 560 q 245 540 245 514 q 245 511 245 508 q 245 504 245 501 z"},"3":{"x_min":0,"x_max":532,"ha":532,"o":"m 281 627 q 299 627 324 621 q 348 615 372 601 q 397 587 413 563 q 429 539 429 502 q 429 471 416 447 q 403 423 384 406 q 366 388 348 378 q 331 367 322 363 q 334 362 358 355 q 381 348 406 332 q 432 316 450 288 q 468 259 468 215 q 468 163 445 122 q 422 81 384 52 q 346 24 300 9 q 254 -6 207 -6 q 160 -6 126 6 q 91 18 76 30 q 71 37 68 51 q 64 65 64 72 q 64 89 77 106 q 90 124 115 124 q 135 124 150 108 q 166 92 178 78 q 192 62 210 48 q 227 35 246 35 q 292 35 315 72 q 338 108 338 174 q 338 211 325 242 q 312 274 288 294 q 265 314 232 314 q 228 314 212 312 q 197 311 178 306 q 170 316 170 329 q 170 330 170 333 q 169 336 170 338 q 198 343 232 356 q 265 368 290 390 q 314 413 314 447 q 314 492 290 524 q 267 555 223 555 q 197 555 174 544 q 150 533 134 520 q 119 508 115 504 q 110 506 107 515 q 104 524 104 531 q 131 567 177 597 q 223 627 281 627 z"},";":{"x_min":0,"x_max":248,"ha":248,"o":"m 136 136 q 149 136 160 131 q 171 126 179 120 q 192 96 192 57 q 192 11 173 -31 q 154 -73 124 -104 q 93 -136 59 -153 q 51 -151 44 -142 q 38 -134 38 -130 q 48 -124 64 -108 q 80 -93 94 -72 q 107 -50 107 -26 q 107 -14 100 -6 q 93 1 84 8 q 75 16 68 29 q 61 42 61 66 q 61 74 67 91 q 73 108 90 122 q 106 136 136 136 z m 48 351 q 48 380 70 401 q 92 422 122 422 q 151 422 171 401 q 191 380 191 351 q 191 322 172 298 q 152 274 122 274 q 91 274 70 298 q 48 322 48 351 z"},"J":{"x_min":0,"x_max":336,"ha":336,"o":"m 171 640 q 202 640 242 642 q 281 643 309 646 q 312 642 312 628 q 313 615 309 610 q 303 610 288 608 q 274 607 262 604 q 249 600 246 593 q 240 578 239 556 q 238 533 238 501 l 238 140 q 238 29 203 -50 q 168 -129 103 -171 q 38 -213 -51 -213 q -65 -213 -82 -206 q -99 -200 -106 -195 q -111 -187 -116 -178 q -122 -169 -122 -153 q -122 -128 -104 -108 q -86 -88 -63 -88 q -46 -88 -33 -98 q -20 -108 -8 -120 q 4 -132 16 -142 q 27 -153 38 -153 q 69 -153 82 -116 q 96 -78 99 -14 q 102 51 102 132 l 102 501 q 102 533 101 556 q 100 578 94 593 q 92 600 79 604 q 66 607 52 608 q 38 610 31 610 q 27 615 28 628 q 28 642 31 646 q 60 643 100 642 q 140 640 171 640 z"},"V":{"x_min":0,"x_max":667,"ha":667,"o":"m 137 640 q 168 640 208 642 q 247 643 275 646 q 278 642 278 628 q 279 615 275 610 q 269 610 254 608 q 240 607 228 602 q 215 596 215 584 q 215 572 222 552 q 230 531 239 511 q 256 472 276 428 q 295 383 314 340 q 334 296 350 260 q 365 225 374 204 q 384 182 384 182 q 384 182 392 204 q 401 226 415 260 q 429 295 445 335 q 461 375 476 412 q 490 450 500 476 q 511 502 513 509 q 520 528 528 550 q 535 571 535 587 q 535 596 518 601 q 501 606 482 608 q 463 610 456 610 q 452 615 452 628 q 453 642 456 646 q 491 643 515 642 q 539 640 573 640 q 605 640 628 642 q 652 645 682 646 q 685 642 686 628 q 686 615 682 610 q 676 610 662 609 q 648 608 634 604 q 620 601 614 593 q 603 578 594 557 q 585 536 574 512 q 544 439 519 379 q 494 319 470 265 q 447 211 423 154 q 399 97 371 29 q 365 16 350 2 q 334 -11 325 -11 q 318 -11 316 -6 q 315 -2 311 3 l 98 498 q 89 519 80 541 q 71 563 64 578 q 58 591 44 598 q 31 604 18 607 q 4 610 -3 610 q -7 615 -6 628 q -6 642 -3 646 q 26 643 66 642 q 106 640 137 640 z"},"\"":{"x_min":0,"x_max":323,"ha":323,"o":"m 252 684 q 270 684 282 668 q 282 656 280 628 q 279 600 276 566 q 274 532 272 499 q 269 466 266 443 q 259 430 242 421 q 235 421 232 429 q 214 491 202 535 q 191 579 191 603 q 191 619 198 638 q 206 657 220 670 q 234 684 252 684 z m 96 684 q 114 684 126 668 q 126 656 124 628 q 123 600 120 566 q 118 532 115 499 q 112 466 109 443 q 101 429 86 421 q 79 421 76 429 q 58 491 46 535 q 35 579 35 603 q 35 619 42 638 q 50 657 64 670 q 78 684 96 684 z"},"7":{"x_min":0,"x_max":532,"ha":532,"o":"m 381 622 q 398 622 418 623 q 437 624 452 625 q 466 626 469 626 q 474 626 475 620 q 476 615 476 611 q 476 604 468 590 q 461 576 449 552 l 184 -8 q 181 -10 175 -10 q 169 -11 167 -11 q 164 -11 154 -9 q 143 -7 134 -2 q 124 4 124 13 q 136 31 159 70 q 182 110 212 164 q 241 218 273 280 q 305 341 336 404 q 368 467 395 523 l 169 523 q 145 523 130 510 q 116 497 108 478 q 99 460 92 441 q 91 439 90 438 q 88 437 80 436 q 73 435 66 438 q 60 440 57 443 q 64 467 72 504 q 81 540 89 573 q 97 606 100 621 q 104 621 126 621 q 148 621 180 621 q 212 621 246 622 q 281 622 312 622 q 343 622 362 622 q 381 622 381 622 z"},"S":{"x_min":0,"x_max":508,"ha":508,"o":"m 261 654 q 305 654 342 646 q 380 637 425 627 q 429 588 432 549 q 434 510 436 465 q 432 459 425 459 q 425 459 424 459 q 420 459 408 460 q 397 460 396 466 q 393 487 383 512 q 373 537 356 560 q 339 583 316 598 q 294 613 266 613 q 247 613 228 606 q 209 598 196 580 q 183 561 183 528 q 183 498 206 470 q 229 441 262 416 q 294 392 324 372 q 356 351 390 326 q 423 302 446 266 q 468 229 468 171 q 468 118 437 77 q 406 36 358 13 q 309 -10 255 -10 q 212 -10 162 -2 q 113 6 69 16 q 64 38 59 72 q 54 106 50 138 q 47 169 46 182 q 49 187 60 191 q 70 195 74 195 q 86 195 87 188 q 90 168 103 142 q 116 115 136 90 q 157 64 184 48 q 212 31 245 31 q 283 31 312 52 q 340 74 340 126 q 340 152 324 176 q 309 199 286 219 q 263 239 238 256 q 213 273 195 285 q 160 309 127 334 q 94 359 74 393 q 53 427 53 478 q 53 529 84 568 q 115 608 163 631 q 211 654 261 654 z"},"}":{"x_min":0,"x_max":397,"ha":397,"o":"m 266 153 q 183 105 196 39 q 201 13 229 -62 q 255 -130 253 -201 q 250 -336 169 -399 q 146 -417 134 -402 q 120 -383 137 -366 q 201 -299 198 -225 q 197 -200 164 -145 q 111 -59 129 38 q 144 126 213 166 q 144 206 129 294 q 111 391 164 477 q 197 532 198 557 q 201 631 137 698 q 120 715 134 734 q 146 749 169 731 q 250 668 253 533 q 255 462 229 394 q 201 319 196 293 q 183 227 266 179 z"},"Z":{"x_min":0,"x_max":625,"ha":625,"o":"m 228 596 q 176 596 150 576 q 123 555 110 524 q 97 494 86 463 q 85 461 84 459 q 82 457 74 457 q 66 457 56 458 q 47 460 45 462 q 53 505 63 552 q 73 600 80 646 q 86 645 104 644 q 123 642 145 642 q 167 641 185 640 q 203 640 208 640 l 345 641 q 407 642 459 644 q 511 646 572 650 q 575 649 578 638 q 581 626 581 618 q 581 617 564 592 q 548 567 521 526 q 494 484 460 434 q 427 383 391 329 q 355 275 322 224 q 288 174 261 134 q 234 94 218 70 q 202 46 202 46 l 412 46 q 471 46 505 80 q 521 96 532 114 q 544 133 557 166 q 559 172 571 172 q 579 172 588 170 q 598 168 600 166 q 592 140 582 110 q 571 79 562 50 q 552 22 547 1 q 538 1 506 1 q 475 1 430 1 q 384 1 332 0 q 280 0 230 0 q 179 0 137 0 q 95 0 70 0 q 45 0 45 0 q 35 0 26 9 q 18 18 20 21 l 407 596 z"},"x":{"x_min":0,"x_max":544,"ha":544,"o":"m 152 426 q 183 426 220 428 q 257 431 275 433 q 279 429 279 415 q 279 401 275 396 q 269 396 258 394 q 246 393 237 388 q 228 384 228 375 q 228 373 232 369 q 235 365 238 361 l 300 281 q 314 296 332 315 q 349 334 362 350 q 375 366 375 370 q 375 382 360 388 q 344 393 327 394 q 310 396 306 396 q 302 400 302 414 q 302 428 305 433 q 327 430 354 428 q 380 426 408 426 q 429 426 454 428 q 478 429 498 430 q 519 432 526 433 q 529 429 530 415 q 530 401 526 396 q 513 396 489 391 q 465 386 445 365 q 419 337 394 309 q 368 281 332 240 q 359 206 380 179 q 402 152 424 125 q 445 98 471 64 q 486 45 508 38 q 531 32 537 32 q 542 26 541 14 q 540 1 537 -4 q 508 0 470 1 q 431 2 402 3 q 371 3 334 0 q 296 -2 278 -4 q 274 0 274 14 q 274 28 278 32 q 284 32 296 34 q 307 36 316 41 q 325 46 325 54 q 325 56 322 60 q 318 63 315 67 l 245 152 q 229 135 206 112 q 184 89 172 73 q 164 63 164 59 q 164 47 180 42 q 196 36 213 34 q 230 32 234 32 q 238 28 238 14 q 238 1 235 -4 q 213 -1 187 1 q 161 3 132 3 q 112 3 86 2 q 59 0 38 -2 q 16 -3 8 -4 q 5 0 4 14 q 4 27 8 32 q 22 32 48 40 q 73 49 90 65 q 126 100 152 128 q 177 157 213 194 q 188 227 169 253 q 150 279 131 306 q 112 332 85 365 q 70 384 47 390 q 24 396 18 396 q 13 402 14 416 q 14 429 17 433 q 46 429 85 428 q 124 427 152 426 z"},")":{"x_min":0,"x_max":458,"ha":458,"o":"m 200 167 q 200 393 109 574 q 67 658 26 693 l 38 720 q 79 698 117 664 q 155 631 190 586 q 326 411 326 167 q 326 -78 190 -253 q 155 -298 117 -332 q 79 -365 38 -387 l 26 -360 q 67 -325 109 -241 q 200 -60 200 167 z"},"&":{"x_min":0,"x_max":679,"ha":679,"o":"m 288 630 q 362 630 412 599 q 461 568 461 517 q 461 473 439 442 q 417 411 384 392 q 352 372 322 361 q 332 348 350 324 q 368 299 389 270 q 410 242 429 217 q 448 192 459 177 q 471 191 485 207 q 499 223 509 236 q 519 250 519 256 q 519 269 505 271 q 491 273 481 273 q 473 273 471 273 q 468 278 468 291 q 468 304 472 305 l 538 304 q 564 303 597 304 q 630 306 663 307 q 666 306 666 292 q 666 279 661 274 q 658 274 645 273 q 632 272 618 270 q 603 267 594 260 q 589 256 576 241 q 562 226 545 207 q 528 188 512 170 q 496 152 486 142 q 490 138 504 122 q 517 107 533 92 q 549 78 559 78 q 573 78 585 88 q 597 98 606 110 q 616 123 621 130 q 637 130 646 112 q 645 108 632 90 q 618 71 598 50 q 577 29 554 13 q 530 -3 507 -3 q 467 -3 443 16 q 419 36 399 59 q 366 28 323 12 q 280 -4 231 -4 q 191 -4 150 14 q 109 33 82 68 q 55 103 55 152 q 55 209 78 246 q 101 283 133 306 q 165 330 191 346 q 175 369 156 400 q 136 430 136 479 q 136 545 178 588 q 219 630 288 630 z m 373 93 q 363 107 342 135 q 322 163 298 196 q 275 228 254 258 q 232 288 219 306 q 203 292 192 270 q 182 249 182 215 q 182 183 196 150 q 209 116 238 93 q 267 70 311 70 q 336 70 350 78 q 363 85 373 93 z m 305 595 q 280 595 264 572 q 249 549 249 514 q 249 476 266 445 q 284 414 297 397 q 329 414 344 440 q 360 467 360 501 q 360 517 356 539 q 351 561 339 578 q 327 595 305 595 z"},"_":{"x_min":0,"x_max":481,"ha":481,"o":"m 8 -32 q 8 -32 10 -20 q 11 -9 14 2 q 17 13 22 13 l 461 13 q 465 13 465 8 q 465 1 462 -10 q 460 -20 455 -36 q 454 -40 452 -41 q 449 -42 449 -42 l 15 -42 q 15 -42 12 -40 q 8 -39 8 -32 z"},"v":{"x_min":0,"x_max":520,"ha":520,"o":"m 132 426 q 163 426 200 428 q 237 431 255 433 q 259 429 259 415 q 259 401 255 396 q 249 396 235 393 q 221 390 209 384 q 197 379 197 370 q 197 368 198 364 q 198 359 199 355 q 212 330 229 297 q 246 264 262 234 q 279 203 290 183 q 300 163 300 163 q 300 163 308 180 q 315 196 326 222 q 338 247 352 277 q 365 307 377 334 q 381 342 384 352 q 387 362 387 370 q 387 382 372 388 q 356 393 339 394 q 322 396 318 396 q 314 400 314 414 q 314 428 317 433 q 339 430 366 428 q 392 426 420 426 q 451 426 480 429 q 510 432 521 433 q 524 429 524 415 q 525 401 521 396 q 515 396 498 394 q 482 392 466 385 q 449 378 442 364 l 292 44 q 263 -11 248 -11 q 246 -11 242 -8 q 238 -5 236 -3 q 193 85 152 172 q 110 258 61 359 q 55 374 42 382 q 28 390 16 393 q 4 396 0 396 q -4 402 -4 416 q -3 429 0 433 q 13 432 37 430 q 61 428 87 427 q 113 426 132 426 z"},"O":{"x_min":0,"x_max":742,"ha":742,"o":"m 371 651 q 436 651 496 626 q 555 600 602 554 q 648 509 676 449 q 703 389 703 320 q 703 251 676 192 q 648 132 602 86 q 555 41 496 16 q 436 -10 371 -10 q 307 -10 247 16 q 187 41 140 86 q 94 132 66 192 q 39 251 39 320 q 39 389 66 449 q 94 509 140 554 q 187 600 247 626 q 307 651 371 651 z m 348 609 q 305 609 276 586 q 246 563 228 526 q 211 488 203 443 q 195 398 195 354 q 195 298 206 242 q 216 185 239 138 q 262 90 300 61 q 337 32 392 32 q 436 32 466 54 q 495 77 513 114 q 531 151 539 196 q 547 241 547 285 q 547 341 536 398 q 526 455 502 503 q 479 551 441 580 q 403 609 348 609 z"},"(":{"x_min":0,"x_max":458,"ha":458,"o":"m 259 167 q 259 -60 350 -241 q 392 -325 433 -360 l 421 -387 q 380 -365 342 -332 q 304 -298 269 -253 q 133 -78 133 167 q 133 411 269 586 q 304 631 342 664 q 380 698 421 720 l 433 693 q 392 658 350 574 q 259 393 259 167 z"},"C":{"x_min":0,"x_max":658,"ha":658,"o":"m 377 651 q 425 651 481 646 q 537 642 580 633 q 581 629 586 608 q 591 586 598 560 q 604 533 608 512 q 613 490 613 485 q 613 481 605 476 q 597 471 588 471 q 584 471 580 472 q 577 472 574 475 q 570 489 560 512 q 549 534 528 556 q 507 579 472 594 q 438 609 386 609 q 317 609 275 572 q 233 534 214 474 q 195 413 195 344 q 195 287 207 232 q 219 177 244 133 q 270 89 310 62 q 350 36 405 36 q 449 36 478 48 q 507 60 526 78 q 547 97 562 124 q 577 151 586 173 q 594 195 595 199 q 616 199 629 188 q 629 184 625 162 q 621 139 614 112 q 608 84 602 62 q 595 41 589 39 q 543 23 493 8 q 443 -7 375 -7 q 306 -7 245 17 q 184 41 138 84 q 92 127 66 186 q 39 245 39 314 q 39 385 66 446 q 92 507 138 553 q 185 599 246 625 q 307 651 377 651 z"},"W":{"x_min":0,"x_max":928,"ha":928,"o":"m 137 640 q 168 640 208 642 q 247 643 275 646 q 278 642 278 628 q 279 615 275 610 q 269 610 254 608 q 240 607 228 602 q 216 596 216 584 q 216 572 224 552 q 231 532 239 511 q 255 466 272 420 q 289 373 303 334 q 317 294 326 270 q 335 245 335 245 q 335 245 343 267 q 351 289 364 325 q 376 361 391 404 q 406 446 421 488 q 436 529 448 562 q 459 594 465 610 q 470 624 478 635 q 487 646 495 646 q 502 646 507 631 q 526 582 548 525 q 571 468 593 412 q 615 356 634 310 q 652 264 663 236 q 674 209 674 209 q 674 209 680 228 q 686 248 696 280 q 706 311 718 348 q 729 384 740 418 q 751 452 759 476 q 767 501 769 509 q 775 528 782 550 q 789 571 789 587 q 789 596 772 601 q 756 606 738 608 q 720 610 713 610 q 709 615 710 628 q 710 642 713 646 q 748 643 772 642 q 795 640 829 640 q 861 640 884 642 q 908 645 938 646 q 941 642 942 628 q 942 615 938 610 q 932 610 918 609 q 904 608 890 604 q 876 601 870 593 q 859 578 848 558 q 838 538 830 512 q 807 443 788 386 q 769 328 750 274 q 732 220 712 164 q 693 107 670 39 q 663 21 652 5 q 640 -11 631 -11 q 624 -11 620 -6 q 616 -2 612 3 l 451 408 q 451 408 443 384 q 435 360 422 320 q 408 280 392 232 q 375 184 358 134 q 341 85 327 43 q 325 38 319 24 q 313 11 306 0 q 299 -11 293 -11 q 286 -11 282 -6 q 278 -2 274 3 l 98 498 q 91 520 81 542 q 71 563 64 578 q 58 591 44 598 q 31 604 18 607 q 5 610 -2 610 q -6 615 -6 628 q -5 642 -2 646 q 27 643 66 642 q 106 640 137 640 z"},"A":{"x_min":0,"x_max":659,"ha":659,"o":"m 92 131 l 300 609 q 305 619 316 632 q 328 646 336 646 q 353 646 357 640 l 557 145 q 567 123 572 106 q 577 90 584 74 q 593 54 610 45 q 626 36 642 34 q 657 32 661 32 q 665 25 666 12 q 666 -1 663 -4 q 634 -2 599 1 q 564 4 532 4 q 510 4 482 2 q 454 1 428 -1 q 403 -3 385 -4 q 383 -1 382 8 q 381 16 382 24 q 383 32 385 32 q 398 32 416 36 q 433 41 443 50 q 451 57 451 66 q 451 69 445 84 q 439 100 430 122 q 422 144 414 166 q 405 187 399 201 q 393 215 393 215 q 393 215 390 217 q 388 219 386 219 q 365 220 346 220 q 326 220 310 220 q 305 220 300 220 q 296 220 292 220 q 262 220 240 220 q 217 220 191 219 q 187 219 184 214 q 184 214 178 199 q 171 184 163 165 q 155 146 149 132 q 142 114 134 92 q 127 70 127 65 q 127 53 144 46 q 161 38 180 35 q 198 32 202 32 q 207 27 206 13 q 205 -1 203 -4 q 178 -1 154 2 q 130 4 98 4 q 64 4 40 2 q 17 -1 -9 -4 q -12 -1 -13 11 q -14 23 -11 31 q -5 31 10 36 q 24 40 38 47 q 53 54 58 62 q 71 82 77 96 q 83 111 92 131 z m 288 465 l 205 273 q 205 273 206 272 q 206 270 207 270 q 222 269 247 268 q 272 267 288 267 q 311 267 328 268 q 344 268 366 269 q 368 269 368 271 q 369 273 369 273 z"},"f":{"x_min":0,"x_max":346,"ha":346,"o":"m 299 682 q 322 682 336 678 q 351 675 361 672 q 374 665 386 654 q 399 644 399 627 q 399 603 386 582 q 374 560 350 560 q 328 560 314 573 q 299 586 285 597 q 268 611 246 611 q 234 611 226 588 q 217 566 217 531 q 217 497 218 462 q 220 426 221 403 l 335 403 q 338 403 340 398 q 341 394 341 390 q 341 383 334 372 q 326 362 318 357 l 224 357 l 224 142 q 224 139 224 136 q 224 132 224 129 q 224 103 225 83 q 226 63 231 50 q 234 44 246 40 q 259 36 274 34 q 288 33 294 32 q 298 27 298 14 q 297 1 294 -4 q 266 -1 228 1 q 191 3 160 3 q 129 3 92 1 q 55 -1 26 -4 q 23 1 22 14 q 22 27 26 32 q 33 33 47 34 q 61 36 74 40 q 87 44 89 50 q 95 65 96 88 q 97 111 97 142 l 97 357 l 27 357 q 23 359 22 363 q 22 367 22 370 q 30 381 38 388 q 45 396 54 403 l 97 403 l 97 433 q 97 483 118 528 q 139 573 171 608 q 203 642 238 662 q 272 682 299 682 z"},"Q":{"x_min":0,"x_max":742,"ha":742,"o":"m 371 651 q 436 651 496 626 q 555 600 602 554 q 648 509 676 449 q 703 389 703 320 q 703 247 672 184 q 641 121 588 75 q 536 29 471 7 q 505 -9 530 -24 q 554 -38 576 -49 q 598 -60 624 -66 q 651 -72 688 -72 q 717 -72 735 -68 q 753 -64 758 -64 q 763 -64 770 -68 q 776 -71 780 -77 q 782 -79 782 -80 q 782 -82 782 -82 q 755 -96 720 -110 q 685 -123 648 -132 q 612 -140 582 -140 q 542 -140 506 -123 q 471 -106 437 -82 q 403 -58 368 -35 q 333 -12 294 0 q 224 19 166 65 q 108 111 74 177 q 39 243 39 320 q 39 389 66 449 q 94 509 140 554 q 187 600 247 626 q 307 651 371 651 z m 348 609 q 305 609 276 586 q 246 563 228 526 q 211 488 203 443 q 195 398 195 354 q 195 298 206 242 q 216 185 239 138 q 262 90 300 61 q 337 32 392 32 q 436 32 466 54 q 495 77 513 114 q 531 151 539 196 q 547 241 547 285 q 547 341 536 398 q 526 455 502 503 q 479 551 441 580 q 403 609 348 609 z"},"w":{"x_min":0,"x_max":770,"ha":770,"o":"m 125 426 q 146 426 172 427 q 197 428 220 430 q 243 432 255 433 q 259 429 259 415 q 259 401 255 396 q 249 396 235 393 q 221 390 209 384 q 197 379 197 370 q 197 368 198 364 q 198 359 199 355 q 212 330 228 298 q 245 266 260 236 q 275 206 284 187 q 294 168 294 168 q 294 168 300 182 q 307 197 316 220 q 326 242 336 265 q 345 288 352 306 q 358 323 358 327 q 358 335 354 345 q 351 355 349 359 q 338 380 316 388 q 294 396 288 396 q 283 402 284 416 q 284 429 287 433 q 316 429 354 428 q 391 427 419 426 q 450 426 487 428 q 524 431 542 433 q 546 429 546 415 q 546 401 542 396 q 536 396 522 393 q 508 390 496 384 q 484 379 484 370 q 484 368 484 364 q 485 359 486 355 q 498 329 512 298 q 526 267 538 239 q 551 211 560 194 q 568 176 568 176 q 568 176 578 200 q 589 225 604 262 q 620 299 635 334 q 638 342 642 352 q 645 362 645 370 q 645 382 630 388 q 614 393 597 394 q 580 396 576 396 q 572 400 572 414 q 572 428 575 433 q 597 430 624 428 q 650 426 678 426 q 709 426 734 429 q 759 432 770 433 q 773 429 774 415 q 774 401 770 396 q 764 396 750 394 q 737 393 724 387 q 711 381 704 366 q 677 303 655 254 q 633 204 611 155 q 589 106 560 43 q 547 15 533 2 q 519 -11 512 -11 q 510 -11 506 -8 q 502 -5 500 -3 q 500 -3 492 18 q 484 38 471 71 q 458 104 443 142 q 428 179 414 213 q 401 247 391 270 q 380 242 364 204 q 347 165 332 128 q 316 91 306 67 q 295 43 295 43 q 282 15 268 2 q 253 -11 246 -11 q 244 -11 240 -8 q 236 -5 234 -3 q 209 52 188 96 q 166 141 146 182 q 127 224 106 266 q 86 309 61 359 q 54 374 41 382 q 28 390 16 393 q 4 396 0 396 q -4 402 -4 416 q -3 429 0 433 q 13 432 35 430 q 57 428 82 427 q 106 426 125 426 z"},"-":{"x_min":0,"x_max":366,"ha":366,"o":"m 69 261 q 69 261 90 262 q 111 263 143 264 q 175 266 208 268 q 242 269 268 270 q 295 272 305 272 q 308 272 310 271 q 312 270 312 264 q 312 251 308 234 q 303 218 297 205 q 274 204 236 202 q 197 200 152 198 q 107 196 62 194 q 55 194 55 205 q 55 219 60 234 q 64 250 69 261 z"},"E":{"x_min":0,"x_max":587,"ha":587,"o":"m 177 642 q 189 642 220 642 q 250 643 290 644 q 329 645 370 646 q 411 646 444 647 q 478 648 495 648 q 500 611 508 574 q 516 537 523 504 q 521 502 513 500 q 505 499 500 499 q 488 499 485 507 q 469 548 446 576 q 424 605 379 605 l 298 605 q 282 605 268 604 q 253 602 249 594 q 246 586 246 574 q 245 562 245 546 q 245 543 245 540 q 245 537 245 534 l 245 359 q 245 355 258 352 q 271 349 287 349 l 338 349 q 367 349 382 354 q 398 359 407 374 q 416 389 424 417 q 426 425 436 425 q 449 425 454 420 l 454 232 q 453 231 448 230 q 442 229 437 229 q 424 229 423 236 q 414 271 405 282 q 396 293 389 296 q 372 303 315 303 q 302 303 286 302 q 269 301 257 298 q 245 295 245 289 l 245 138 q 245 138 245 136 q 245 131 245 116 q 245 102 246 86 q 248 70 252 61 q 257 51 277 46 q 297 41 316 41 l 380 41 q 408 41 432 49 q 455 57 471 73 q 487 89 499 111 q 511 133 524 166 q 526 172 537 172 q 545 172 555 170 q 565 168 567 166 q 558 140 547 109 q 536 78 527 49 q 518 20 514 -2 q 504 -2 468 -2 q 432 -2 381 -2 q 330 -2 274 -2 q 219 -2 168 -2 q 118 -2 82 -2 q 47 -3 37 -3 q 34 2 34 15 q 33 28 37 33 q 44 34 58 36 q 72 37 85 40 q 98 44 100 50 q 106 65 107 88 q 108 111 108 142 l 108 501 q 108 533 107 556 q 106 578 100 593 q 98 600 85 603 q 72 606 58 607 q 44 608 37 608 q 33 613 34 627 q 34 641 37 645 q 70 643 108 642 q 146 642 177 642 z"},"s":{"x_min":0,"x_max":394,"ha":394,"o":"m 219 438 q 254 438 279 431 q 304 424 328 419 q 332 403 337 378 q 342 352 346 330 q 349 308 349 299 q 349 296 342 294 q 336 292 331 292 q 325 292 321 294 q 317 297 312 300 q 307 322 296 344 q 285 367 264 382 q 243 398 209 398 q 185 398 169 385 q 153 372 153 346 q 153 321 169 306 q 185 290 208 280 q 232 270 253 259 q 279 247 303 232 q 327 217 342 193 q 358 169 358 127 q 358 78 332 48 q 305 19 261 6 q 217 -8 166 -8 q 134 -8 102 0 q 70 9 52 13 q 51 21 50 40 q 48 59 46 80 q 45 102 44 119 q 44 136 44 140 q 44 145 50 146 q 55 146 59 146 q 64 146 71 144 q 78 142 80 137 q 87 95 105 72 q 123 49 145 40 q 167 31 186 31 q 212 31 226 48 q 241 64 241 84 q 241 109 226 124 q 210 138 187 148 q 164 159 141 171 q 98 194 68 224 q 37 254 37 303 q 37 340 54 366 q 72 391 100 407 q 127 423 158 430 q 190 438 219 438 z"},">":{"x_min":0,"x_max":483,"ha":483,"o":"m 50 44 q 50 48 52 49 q 53 50 53 50 l 364 204 l 54 355 q 54 355 52 358 q 50 360 51 364 q 62 420 67 420 q 68 420 72 418 l 437 235 q 454 227 454 212 q 454 199 451 189 q 448 179 437 173 l 70 -13 q 66 -15 65 -15 q 62 -15 58 -2 q 55 12 52 26 q 50 41 50 44 z"},"l":{"x_min":0,"x_max":298,"ha":298,"o":"m 86 545 q 86 558 85 568 q 84 579 79 592 q 77 598 65 602 q 53 606 40 608 q 27 609 21 609 q 18 609 18 624 q 17 638 21 641 q 76 646 118 655 q 159 664 184 672 q 208 679 209 679 q 214 678 218 672 q 223 666 224 662 q 224 662 222 645 q 219 628 216 605 q 213 582 213 562 l 213 142 q 213 111 214 88 q 215 65 221 50 q 224 44 236 40 q 249 36 264 34 q 278 33 284 32 q 288 27 288 14 q 287 1 284 -4 q 256 -1 218 1 q 181 3 150 3 q 119 3 82 1 q 45 -1 16 -4 q 13 1 12 14 q 12 27 16 32 q 23 33 37 34 q 51 36 64 40 q 77 44 79 50 q 84 63 85 83 q 86 103 86 129 q 86 132 86 136 q 86 139 86 142 z"},"8":{"x_min":0,"x_max":532,"ha":532,"o":"m 264 618 q 309 618 351 602 q 393 587 420 556 q 446 525 446 478 q 446 432 413 398 q 380 363 338 346 q 333 344 338 341 q 352 333 374 316 q 396 300 418 277 q 440 254 456 225 q 471 196 471 163 q 471 111 440 73 q 410 35 362 14 q 314 -6 262 -6 q 213 -6 167 8 q 121 23 92 57 q 62 91 62 149 q 62 190 81 220 q 100 250 129 270 q 158 290 187 299 q 190 300 185 304 q 168 319 142 341 q 116 363 96 396 q 76 429 76 475 q 76 518 104 550 q 132 582 175 600 q 218 618 264 618 z m 270 35 q 306 35 324 58 q 343 82 343 115 q 343 143 330 168 q 318 192 300 212 q 281 232 263 246 q 245 261 234 269 q 229 273 226 273 q 225 273 224 273 q 222 273 221 272 q 205 253 197 221 q 189 189 189 152 q 189 124 197 97 q 205 70 223 52 q 241 35 270 35 z m 262 578 q 235 578 218 555 q 202 532 202 500 q 202 467 218 442 q 234 416 254 400 q 274 384 286 377 q 288 376 292 374 q 295 372 298 372 q 301 372 304 375 q 318 395 321 420 q 324 446 324 475 q 324 497 318 521 q 311 545 298 562 q 284 578 262 578 z"},"\\":{"x_min":0,"x_max":344,"ha":344,"o":"m 30 711 q 40 711 48 710 q 56 709 62 705 q 73 698 78 690 l 331 -196 l 329 -198 q 327 -200 324 -201 q 318 -203 313 -203 q 292 -203 278 -196 q 266 -190 264 -182 l 12 704 q 13 711 30 711 z"},"e":{"x_min":0,"x_max":449,"ha":449,"o":"m 158 236 q 158 185 173 152 q 188 120 210 103 q 232 86 256 80 q 279 73 295 73 q 338 73 363 90 q 388 106 404 122 q 409 121 412 115 q 416 109 416 104 q 416 91 413 86 q 404 73 380 50 q 356 27 320 9 q 283 -9 236 -9 q 182 -9 135 16 q 88 40 60 86 q 31 131 31 195 q 31 241 49 284 q 67 328 98 362 q 128 397 167 417 q 206 437 248 437 q 296 437 329 422 q 362 407 382 384 q 401 361 410 336 q 419 310 419 289 q 419 273 412 261 q 404 249 393 248 q 360 245 319 242 q 278 240 236 238 q 194 237 158 236 z m 159 275 q 162 275 178 276 q 195 276 216 278 q 238 279 257 280 q 276 282 285 283 q 294 284 296 290 q 298 295 298 299 q 298 322 292 344 q 286 366 273 381 q 260 396 238 396 q 216 396 201 382 q 186 368 176 348 q 167 328 163 308 q 159 287 159 275 z"},"b":{"x_min":0,"x_max":529,"ha":529,"o":"m 238 -8 q 200 -8 167 4 q 134 15 115 15 q 102 15 93 12 q 84 10 79 8 q 77 8 66 18 q 55 27 55 32 q 60 46 64 73 q 67 100 67 148 l 67 545 q 67 558 66 568 q 65 579 60 592 q 58 598 46 602 q 33 606 20 608 q 7 609 1 609 q -2 609 -2 624 q -3 638 1 641 q 56 646 98 655 q 140 664 164 672 q 189 679 190 679 q 195 678 199 672 q 203 666 204 662 q 204 662 199 633 q 194 604 194 563 l 194 405 q 194 401 195 395 q 196 389 200 393 q 208 399 224 410 q 241 421 260 430 q 280 438 296 438 q 353 438 399 411 q 445 384 472 337 q 499 290 499 230 q 499 172 476 128 q 454 83 416 52 q 378 22 332 7 q 286 -8 238 -8 z m 247 366 q 227 366 216 360 q 204 353 197 345 q 194 342 194 336 l 194 96 q 194 71 210 53 q 227 35 258 35 q 289 35 312 59 q 334 83 346 119 q 359 155 359 191 q 359 258 344 296 q 328 334 303 350 q 278 366 247 366 z"},"%":{"x_min":0,"x_max":669,"ha":669,"o":"m 190 626 q 235 626 270 607 q 305 588 324 555 q 344 522 344 480 q 344 439 324 404 q 303 370 268 350 q 234 329 191 329 q 146 329 112 348 q 77 368 58 402 q 38 435 38 476 q 38 517 58 551 q 78 585 112 606 q 147 626 190 626 z m 480 297 q 525 297 560 278 q 595 259 614 226 q 634 193 634 151 q 634 110 614 76 q 593 41 558 20 q 524 0 481 0 q 436 0 402 20 q 367 39 348 72 q 328 105 328 146 q 328 187 348 222 q 368 256 402 276 q 437 297 480 297 z m 608 620 l 104 -5 q 101 -9 89 -14 q 77 -20 64 -20 q 53 -20 52 -14 q 50 -8 50 -8 l 554 617 q 560 622 570 626 q 580 630 593 630 q 608 630 608 620 z m 473 268 q 449 268 438 250 q 427 233 424 208 q 421 183 421 159 q 421 131 428 101 q 435 71 450 50 q 464 30 488 30 q 512 30 524 47 q 535 64 538 89 q 541 114 541 137 q 541 166 534 196 q 527 227 512 248 q 497 268 473 268 z m 183 597 q 159 597 148 580 q 137 562 134 537 q 131 512 131 488 q 131 460 138 430 q 144 400 159 380 q 174 359 198 359 q 222 359 234 376 q 245 393 248 418 q 251 443 251 466 q 251 495 244 526 q 237 556 222 576 q 207 597 183 597 z"},"m":{"x_min":0,"x_max":862,"ha":862,"o":"m 371 436 q 418 436 446 418 q 475 399 492 352 q 514 373 542 392 q 571 412 600 424 q 630 436 652 436 q 708 436 736 410 q 765 385 775 334 q 785 282 785 205 l 785 142 q 785 139 785 136 q 785 132 785 129 q 785 103 786 83 q 787 63 792 50 q 795 44 808 40 q 820 36 834 34 q 849 33 855 32 q 859 27 858 14 q 858 1 855 -4 q 827 -1 790 1 q 752 3 721 3 q 690 3 659 1 q 628 -1 599 -4 q 596 1 596 14 q 595 27 599 32 q 609 33 628 36 q 646 40 650 50 q 656 65 657 88 q 658 111 658 142 l 658 219 q 658 254 652 286 q 647 317 632 336 q 618 356 592 356 q 573 356 552 347 q 530 338 515 326 q 500 313 500 303 l 500 297 q 502 277 503 254 q 504 231 504 205 l 504 142 q 504 111 505 88 q 506 65 512 50 q 515 44 527 40 q 539 36 553 34 q 567 33 573 32 q 577 27 576 14 q 576 1 573 -4 q 545 -1 508 1 q 472 3 441 3 q 410 3 378 1 q 346 -1 317 -4 q 314 1 314 14 q 313 27 317 32 q 327 33 346 36 q 366 40 370 50 q 375 63 376 83 q 377 103 377 129 q 377 132 377 136 q 377 139 377 142 l 377 219 q 377 254 372 286 q 366 317 352 336 q 338 356 312 356 q 293 356 273 346 q 253 337 240 324 q 226 312 226 302 l 226 142 q 226 115 227 90 q 228 65 234 50 q 237 44 248 40 q 258 36 270 34 q 283 33 289 32 q 293 27 292 14 q 292 1 289 -4 q 261 -1 227 1 q 193 3 162 3 q 131 3 94 1 q 58 -1 29 -4 q 26 1 26 14 q 25 27 29 32 q 36 33 50 34 q 63 36 76 40 q 89 44 91 50 q 97 65 98 88 q 99 111 99 142 l 99 254 q 99 259 98 276 q 98 292 96 310 q 94 327 90 334 q 86 342 72 346 q 59 350 46 352 q 33 354 29 354 q 28 355 27 362 q 26 370 27 377 q 28 384 30 384 q 67 387 104 396 q 140 405 171 416 q 202 427 220 436 q 225 435 231 428 q 237 421 237 419 q 236 415 233 402 q 230 388 228 376 q 227 364 227 363 q 227 358 228 357 q 230 357 235 362 q 249 378 272 395 q 296 412 322 424 q 349 436 371 436 z"},"#":{"x_min":0,"x_max":463,"ha":463,"o":"m 399 331 l 340 331 l 321 210 l 385 210 q 392 210 390 195 q 389 180 384 164 q 378 148 371 145 l 311 145 l 293 35 q 292 32 283 27 q 274 22 263 22 q 256 22 254 24 q 252 26 252 26 l 271 145 l 153 145 l 135 35 q 134 32 126 27 q 117 22 106 22 q 99 22 97 24 q 95 26 95 26 l 114 145 l 50 145 q 44 145 46 160 q 48 176 54 192 q 61 208 67 210 l 125 210 l 144 331 l 77 331 q 71 331 73 346 q 75 362 81 378 q 87 394 93 396 l 154 396 l 172 506 q 174 513 180 516 q 186 519 200 519 q 207 519 209 518 q 211 518 213 516 l 194 396 l 311 396 l 329 506 q 331 513 338 516 q 344 519 358 519 q 365 519 366 518 q 368 518 370 516 l 351 396 l 411 396 q 418 396 417 381 q 416 366 411 350 q 406 334 399 331 z m 183 331 l 163 210 l 282 210 l 301 331 z"},",":{"x_min":0,"x_max":218,"ha":218,"o":"m 116 136 q 129 136 140 131 q 151 126 159 120 q 165 109 169 92 q 173 74 173 57 q 173 11 154 -31 q 134 -73 104 -104 q 73 -136 39 -153 q 31 -151 25 -142 q 19 -134 19 -130 q 29 -124 45 -108 q 61 -93 74 -72 q 88 -50 88 -26 q 88 -14 81 -6 q 74 1 64 8 q 55 16 48 29 q 41 42 41 66 q 41 74 47 91 q 53 108 70 122 q 86 136 116 136 z"},"n":{"x_min":0,"x_max":582,"ha":582,"o":"m 371 436 q 427 436 456 410 q 484 385 494 334 q 504 282 504 205 l 504 142 q 504 111 505 88 q 506 65 512 50 q 515 44 528 40 q 540 36 554 34 q 569 33 575 32 q 579 27 578 14 q 578 1 575 -4 q 547 -1 510 1 q 472 3 441 3 q 410 3 379 1 q 348 -1 319 -4 q 316 1 316 14 q 315 27 319 32 q 329 33 348 36 q 366 40 370 50 q 375 63 376 83 q 377 103 377 129 q 377 132 377 136 q 377 139 377 142 l 377 219 q 377 254 372 286 q 366 317 352 336 q 338 356 312 356 q 293 356 273 346 q 253 337 240 324 q 226 312 226 302 l 226 142 q 226 115 227 90 q 228 65 234 50 q 237 44 248 40 q 258 36 270 34 q 283 33 289 32 q 293 27 292 14 q 292 1 289 -4 q 261 -1 227 1 q 193 3 162 3 q 131 3 94 1 q 58 -1 29 -4 q 26 1 26 14 q 25 27 29 32 q 36 33 50 34 q 63 36 76 40 q 89 44 91 50 q 97 65 98 88 q 99 111 99 142 l 99 254 q 99 259 98 276 q 98 292 96 310 q 94 327 90 334 q 86 342 72 346 q 59 350 46 352 q 33 354 29 354 q 28 355 27 362 q 26 370 27 377 q 28 384 30 384 q 67 387 104 396 q 140 405 171 416 q 202 427 220 436 q 225 436 231 430 q 237 423 237 419 q 236 415 234 402 q 231 388 229 376 q 227 364 227 363 q 227 358 228 357 q 230 357 235 362 q 249 378 272 395 q 296 412 322 424 q 349 436 371 436 z"},"h":{"x_min":0,"x_max":569,"ha":569,"o":"m 359 436 q 415 436 444 410 q 472 385 482 334 q 492 282 492 205 l 492 142 q 492 139 492 136 q 492 132 492 129 q 492 103 493 83 q 494 63 499 50 q 502 44 514 40 q 527 36 542 34 q 556 33 562 32 q 566 27 566 14 q 565 1 562 -4 q 534 -1 496 1 q 459 3 428 3 q 397 3 366 1 q 335 -1 306 -4 q 303 1 302 14 q 302 27 306 32 q 316 33 334 36 q 353 40 357 50 q 363 65 364 88 q 365 111 365 142 l 365 219 q 365 254 360 286 q 354 317 340 336 q 325 356 299 356 q 280 356 260 346 q 240 337 226 324 q 213 312 213 302 l 213 142 q 213 115 214 90 q 215 65 221 50 q 224 44 235 40 q 246 36 258 34 q 271 33 277 32 q 281 27 280 14 q 280 1 277 -4 q 249 -1 215 1 q 181 3 150 3 q 119 3 82 1 q 45 -1 16 -4 q 13 1 12 14 q 12 27 16 32 q 23 33 37 34 q 51 36 64 40 q 77 44 79 50 q 84 63 85 83 q 86 103 86 129 q 86 132 86 136 q 86 139 86 142 l 86 545 q 86 558 85 568 q 84 579 79 592 q 77 598 65 602 q 53 606 40 608 q 27 609 21 609 q 18 609 18 624 q 17 638 21 641 q 76 646 118 655 q 159 664 184 672 q 208 679 209 679 q 214 678 218 672 q 223 666 224 662 q 224 662 222 645 q 219 628 216 605 q 213 582 213 562 l 213 363 q 213 358 214 357 q 216 357 221 362 q 235 378 259 395 q 283 412 310 424 q 337 436 359 436 z"},"z":{"x_min":0,"x_max":449,"ha":449,"o":"m 146 418 l 281 418 q 321 418 349 420 q 377 422 407 426 q 410 421 410 416 q 410 410 410 405 q 410 403 410 402 l 173 45 l 284 45 q 314 45 336 62 q 357 79 370 102 q 383 125 387 144 q 388 148 392 149 q 396 150 399 150 q 407 150 415 146 q 423 142 424 141 q 419 127 412 104 q 406 80 400 56 q 393 33 389 16 q 385 0 385 0 l 38 0 q 38 0 33 5 q 28 10 28 17 q 28 25 32 33 l 251 372 q 251 372 232 372 q 213 373 189 373 q 165 373 149 373 q 124 373 108 357 q 93 341 84 320 q 76 298 70 281 q 69 278 62 276 q 56 274 48 274 q 36 274 36 278 q 38 286 42 311 q 45 336 49 367 q 53 398 54 424 q 54 424 70 422 q 85 421 107 420 q 129 418 146 418 z"},"B":{"x_min":0,"x_max":604,"ha":604,"o":"m 327 645 q 373 645 418 630 q 463 615 494 581 q 524 547 524 490 q 524 461 512 438 q 499 415 481 398 q 463 381 446 371 q 428 361 418 357 q 412 355 412 354 q 412 352 413 352 q 431 350 458 338 q 484 327 510 306 q 536 285 554 256 q 571 226 571 188 q 571 140 542 98 q 514 56 468 29 q 425 4 372 0 q 319 -4 265 -3 q 257 -3 243 -3 q 229 -3 212 -3 q 182 -3 146 -3 q 111 -3 81 -3 q 51 -3 37 -3 q 34 2 34 15 q 33 28 37 33 q 44 34 58 36 q 72 37 85 40 q 98 44 100 50 q 106 65 107 88 q 108 111 108 142 l 108 501 q 108 533 107 556 q 106 578 100 593 q 98 600 85 603 q 72 606 58 607 q 44 608 37 608 q 33 613 34 627 q 34 641 37 645 q 70 643 108 642 q 146 642 177 642 q 208 642 246 644 q 284 645 327 645 z m 245 324 l 245 106 q 245 106 245 104 q 245 97 246 78 q 246 58 252 50 q 258 42 276 40 q 295 38 314 38 q 337 38 360 50 q 384 63 400 92 q 417 122 417 172 q 417 209 406 244 q 395 278 368 301 q 342 324 295 324 z m 245 362 l 295 362 q 332 362 356 392 q 379 421 379 476 q 379 546 358 576 q 336 605 298 605 q 282 605 268 604 q 253 602 249 594 q 246 586 246 574 q 245 562 245 546 q 245 543 245 540 q 245 537 245 534 z"},"K":{"x_min":0,"x_max":702,"ha":702,"o":"m 177 640 q 208 640 248 642 q 287 643 315 646 q 318 642 318 628 q 319 615 315 610 q 309 610 294 608 q 280 607 268 604 q 255 600 252 593 q 247 580 246 560 q 245 540 245 514 q 245 511 245 508 q 245 504 245 501 l 245 329 q 310 380 346 418 q 376 448 396 469 q 417 490 435 510 q 453 530 473 557 q 481 567 482 576 q 483 584 483 589 q 483 600 472 604 q 461 609 448 610 q 435 611 428 611 q 424 617 424 628 q 424 639 426 646 q 453 645 490 642 q 526 640 553 640 q 620 640 674 646 q 676 641 676 629 q 676 617 672 612 q 668 612 648 608 q 628 605 604 596 q 580 587 562 569 q 562 569 544 550 q 526 532 498 503 q 469 474 437 442 q 405 409 378 380 q 371 371 375 364 q 402 328 432 287 q 463 246 490 210 q 517 173 534 150 q 551 127 551 127 q 587 81 623 61 q 659 41 684 36 q 709 32 713 32 q 717 27 716 12 q 714 -2 713 -4 q 692 -5 654 -6 q 615 -8 585 -8 q 529 -8 492 16 q 454 40 436 65 q 427 78 405 107 q 383 136 356 172 q 330 207 305 240 q 280 273 264 295 q 260 299 254 299 q 248 299 245 293 l 245 142 q 245 139 245 136 q 245 132 245 129 q 245 103 246 83 q 247 63 252 50 q 255 44 268 40 q 280 36 294 34 q 309 33 315 32 q 319 27 318 14 q 318 1 315 -4 q 287 -1 246 1 q 206 3 175 3 q 144 3 105 1 q 66 -1 37 -4 q 34 1 34 14 q 33 27 37 32 q 44 33 58 34 q 72 36 85 40 q 98 44 100 50 q 106 65 107 88 q 108 111 108 142 l 108 501 q 108 533 107 556 q 106 578 100 593 q 98 600 85 604 q 72 607 58 608 q 44 610 37 610 q 33 615 34 628 q 34 642 37 646 q 66 643 106 642 q 146 640 177 640 z"},"R":{"x_min":0,"x_max":676,"ha":676,"o":"m 328 645 q 389 645 437 625 q 485 605 513 566 q 541 526 541 467 q 541 437 528 410 q 514 384 493 362 q 472 341 450 328 q 427 314 409 309 q 445 261 477 220 q 509 178 530 152 q 550 127 550 127 q 586 81 622 61 q 658 41 683 36 q 708 32 712 32 q 716 27 714 12 q 713 -2 712 -4 q 691 -5 652 -6 q 614 -8 584 -8 q 528 -8 490 16 q 453 40 435 65 l 277 277 q 277 277 271 284 q 265 292 259 292 l 245 292 l 245 142 q 245 139 245 136 q 245 132 245 129 q 245 103 246 83 q 247 63 252 50 q 255 44 268 40 q 280 36 294 34 q 309 33 315 32 q 319 27 318 14 q 318 1 315 -4 q 287 -1 246 1 q 206 3 175 3 q 144 3 105 1 q 66 -1 37 -4 q 34 1 34 14 q 33 27 37 32 q 44 33 58 34 q 72 36 85 40 q 98 44 100 50 q 106 65 107 88 q 108 111 108 142 l 108 501 q 108 533 107 556 q 106 578 100 593 q 98 600 85 603 q 72 606 58 607 q 44 608 37 608 q 33 613 34 627 q 34 641 37 645 q 70 643 108 642 q 146 642 177 642 q 208 642 246 644 q 285 645 328 645 z m 396 457 q 396 496 388 530 q 380 563 359 584 q 338 605 298 605 q 282 605 268 604 q 253 602 249 594 q 246 586 246 574 q 245 562 245 546 q 245 543 245 540 q 245 537 245 534 l 245 330 l 289 330 q 317 330 342 346 q 366 362 381 391 q 396 420 396 457 z"},"T":{"x_min":0,"x_max":619,"ha":619,"o":"m 472 642 q 507 642 526 646 q 544 651 554 656 q 564 660 573 660 q 579 660 580 660 q 582 659 585 657 l 611 478 q 609 476 600 474 q 590 471 583 471 q 574 471 573 476 q 568 508 553 536 q 538 564 516 582 q 494 599 469 599 l 378 599 l 378 142 q 378 111 379 88 q 380 65 386 50 q 389 44 402 40 q 414 36 428 34 q 442 33 448 32 q 452 27 452 14 q 451 1 448 -4 q 420 -1 380 1 q 340 3 309 3 q 278 3 239 1 q 200 -1 171 -4 q 168 1 168 14 q 167 27 171 32 q 178 33 192 34 q 205 36 218 40 q 231 44 233 50 q 239 65 240 88 q 241 111 241 142 l 241 599 l 150 599 q 125 599 103 582 q 81 564 66 536 q 51 508 46 476 q 45 471 36 471 q 29 471 20 474 q 10 476 8 478 l 34 657 q 37 659 38 660 q 40 660 46 660 q 55 660 65 656 q 75 651 94 646 q 112 642 147 642 z"},"P":{"x_min":0,"x_max":571,"ha":571,"o":"m 552 471 q 552 413 524 370 q 495 327 450 304 q 406 280 356 280 q 330 280 312 289 q 293 298 288 303 q 285 306 283 314 q 281 321 281 327 q 281 334 285 334 q 293 332 304 331 q 314 330 325 330 q 361 330 384 366 q 407 401 407 457 q 407 496 394 530 q 380 563 356 584 q 331 605 298 605 q 282 605 268 604 q 253 602 249 594 q 246 586 246 574 q 245 562 245 546 q 245 543 245 540 q 245 537 245 534 l 245 142 q 245 139 245 136 q 245 132 245 129 q 245 103 246 83 q 247 63 252 50 q 255 44 268 40 q 280 36 294 34 q 309 33 315 32 q 319 27 318 14 q 318 1 315 -4 q 287 -1 246 1 q 206 3 175 3 q 144 3 105 1 q 66 -1 37 -4 q 34 1 34 14 q 33 27 37 32 q 44 33 58 34 q 72 36 85 40 q 98 44 100 50 q 106 65 107 88 q 108 111 108 142 l 108 501 q 108 533 107 556 q 106 578 100 593 q 98 600 85 603 q 72 606 58 607 q 44 608 37 608 q 33 613 34 627 q 34 641 37 645 q 70 643 108 642 q 146 642 177 642 q 208 642 246 644 q 285 645 328 645 q 389 645 440 624 q 491 604 522 566 q 552 527 552 471 z"},"|":{"x_min":0,"x_max":197,"ha":197,"o":"m 125 -370 q 125 -375 81 -384 l 78 -384 q 72 -384 72 -381 q 72 -381 72 -380 q 73 -380 73 -379 l 73 705 l 74 710 q 75 711 76 712 q 77 712 78 713 q 96 718 116 718 q 124 718 124 712 z"},"t":{"x_min":0,"x_max":333,"ha":333,"o":"m 207 418 l 318 418 q 321 418 322 414 q 324 409 324 405 q 324 398 317 388 q 310 377 302 372 l 207 372 l 207 130 q 207 91 220 74 q 233 56 260 56 q 277 56 294 66 q 310 77 312 79 q 314 78 316 74 q 318 69 318 65 q 318 61 316 55 q 313 49 311 47 q 307 42 292 29 q 277 16 255 4 q 233 -7 207 -7 q 177 -7 148 6 q 118 19 99 50 q 80 82 80 136 l 80 372 l 11 372 q 7 374 6 378 q 6 382 6 385 q 14 396 21 404 q 28 411 37 418 l 80 418 l 80 470 q 108 493 134 522 q 161 551 183 573 q 191 578 198 578 q 206 578 207 573 z"},"M":{"x_min":0,"x_max":885,"ha":885,"o":"m 167 641 q 192 641 216 643 q 241 645 270 646 q 281 623 300 579 q 320 535 345 478 q 370 421 398 358 q 427 294 454 232 q 454 232 456 231 q 457 230 458 230 q 459 230 460 232 q 462 235 462 236 q 462 236 474 266 q 486 295 504 341 q 522 387 542 438 q 561 489 577 533 q 585 554 592 580 q 600 605 605 624 q 610 643 610 643 q 615 643 636 642 q 658 641 682 640 q 706 640 715 640 q 740 640 770 642 q 800 645 829 646 q 832 643 834 629 q 837 615 833 609 q 827 609 808 606 q 790 604 782 599 q 775 594 772 586 q 768 579 769 559 q 770 534 772 484 q 773 435 775 375 q 777 315 779 255 q 781 195 783 148 q 785 120 787 94 q 789 69 796 50 q 799 43 812 39 q 826 35 840 34 q 854 32 858 32 q 866 15 860 -4 q 831 -2 795 1 q 759 4 727 4 q 693 4 650 1 q 607 -2 573 -4 q 570 -1 570 12 q 569 26 571 32 q 577 32 592 34 q 607 36 622 40 q 636 44 640 51 q 644 57 646 68 q 648 78 648 85 q 648 93 648 112 q 648 132 647 145 l 637 485 q 637 487 636 499 q 635 511 630 511 q 628 511 625 504 l 453 39 q 452 35 445 25 q 438 15 429 6 q 420 -2 411 -2 q 408 -2 402 0 l 185 511 q 183 450 182 408 q 180 365 179 334 q 178 302 177 273 q 176 244 175 210 q 174 177 172 131 q 171 115 173 92 q 175 68 176 63 q 178 55 190 49 q 202 43 218 40 q 233 36 246 34 q 258 32 261 32 q 263 27 264 16 q 265 4 263 -4 q 234 -2 204 1 q 174 4 142 4 q 108 4 81 1 q 54 -2 20 -4 q 17 1 17 12 q 17 24 19 31 q 25 31 43 34 q 61 38 79 46 q 97 54 102 66 q 104 71 106 88 q 109 106 111 125 q 113 144 113 152 q 115 186 117 234 q 119 282 121 334 q 123 386 125 434 q 127 482 128 518 q 129 553 130 567 q 130 572 130 578 q 129 584 125 589 q 119 597 97 604 q 75 610 62 610 q 58 616 60 630 q 61 645 62 646 q 85 645 100 644 q 114 643 130 642 q 145 641 167 641 z"},"g":{"x_min":0,"x_max":466,"ha":466,"o":"m 318 94 q 363 92 392 72 q 421 52 434 28 q 448 3 448 -14 q 448 -58 426 -94 q 404 -131 367 -158 q 330 -184 284 -198 q 237 -213 187 -213 q 115 -213 69 -182 q 23 -150 23 -101 q 23 -81 36 -63 q 50 -45 69 -30 q 88 -15 106 -6 q 81 1 64 30 q 48 59 48 90 q 48 99 60 112 q 73 124 92 138 q 111 151 129 161 q 87 178 62 212 q 38 245 38 287 q 38 328 62 361 q 85 394 125 414 q 165 433 215 433 q 248 433 274 428 q 299 422 319 408 q 322 405 325 405 l 447 417 q 449 416 454 414 q 458 411 458 406 q 458 403 454 392 q 450 381 444 371 q 439 361 434 357 q 418 359 408 360 q 398 361 379 363 q 373 363 373 360 q 385 344 390 328 q 394 312 394 292 q 394 252 371 218 q 348 185 308 165 q 268 145 217 145 q 204 145 191 146 q 178 147 166 149 q 158 142 150 134 q 143 127 143 119 q 143 108 158 102 q 172 95 189 95 q 196 95 203 95 q 210 95 218 95 q 243 95 271 95 q 299 95 318 94 z m 254 -14 l 146 -14 q 141 -20 136 -30 q 131 -40 131 -57 q 131 -105 164 -132 q 197 -158 248 -158 q 295 -158 320 -144 q 345 -131 354 -112 q 363 -93 363 -77 q 363 -46 332 -30 q 301 -14 254 -14 z m 210 396 q 185 396 174 381 q 162 366 159 344 q 156 322 156 300 q 156 273 163 246 q 170 218 186 200 q 201 181 226 181 q 251 181 261 196 q 271 210 273 231 q 275 252 275 273 q 275 276 275 278 q 275 305 270 332 q 264 360 250 378 q 236 396 210 396 z"},"j":{"x_min":0,"x_max":279,"ha":279,"o":"m 87 62 l 87 254 q 87 259 86 276 q 86 292 84 310 q 82 327 78 334 q 74 342 60 346 q 47 350 34 352 q 21 354 17 354 q 16 355 15 362 q 14 370 14 377 q 15 384 18 384 q 55 387 92 396 q 128 405 159 416 q 190 427 208 436 q 213 435 219 428 q 225 421 225 419 q 223 413 220 394 q 216 374 215 363 q 214 347 214 327 q 214 307 214 302 l 214 117 q 214 56 204 -2 q 194 -60 167 -100 q 144 -133 112 -158 q 79 -184 49 -198 q 19 -213 2 -213 q -3 -210 -8 -205 q -12 -200 -12 -196 q -12 -190 -11 -189 q -9 -188 6 -177 q 21 -166 40 -138 q 58 -111 72 -62 q 87 -13 87 62 z m 70 602 q 70 632 92 653 q 113 674 143 674 q 173 674 194 653 q 215 632 215 602 q 215 572 194 550 q 173 529 143 529 q 113 529 92 550 q 70 572 70 602 z"},"i":{"x_min":0,"x_max":307,"ha":307,"o":"m 226 302 l 226 142 q 226 115 227 90 q 228 65 234 50 q 237 44 248 40 q 258 36 270 34 q 283 33 289 32 q 293 27 292 14 q 292 1 289 -4 q 261 -1 227 1 q 193 3 162 3 q 131 3 94 1 q 58 -1 29 -4 q 26 1 26 14 q 25 27 29 32 q 36 33 50 34 q 63 36 76 40 q 89 44 91 50 q 97 65 98 88 q 99 111 99 142 l 99 254 q 99 259 98 276 q 98 292 96 310 q 94 327 90 334 q 86 342 72 346 q 59 350 46 352 q 33 354 29 354 q 28 355 27 362 q 26 370 27 377 q 28 384 30 384 q 67 387 104 396 q 140 405 171 416 q 202 427 220 436 q 225 435 231 428 q 237 421 237 419 q 235 413 232 394 q 228 374 227 363 q 226 347 226 327 q 226 307 226 302 z m 82 602 q 82 631 103 652 q 124 672 153 672 q 182 672 203 652 q 224 631 224 602 q 224 573 203 552 q 182 531 153 531 q 124 531 103 552 q 82 573 82 602 z"},"y":{"x_min":0,"x_max":521,"ha":521,"o":"m 132 426 q 163 426 200 428 q 237 431 255 433 q 259 429 259 415 q 259 401 255 396 q 249 396 235 393 q 221 390 209 384 q 197 379 197 370 q 197 368 198 364 q 198 359 199 355 q 212 330 229 297 q 246 264 262 234 q 279 203 290 183 q 300 163 300 163 q 300 163 308 180 q 315 196 326 222 q 338 247 352 277 q 365 307 377 334 q 381 342 384 352 q 387 362 387 370 q 387 382 372 388 q 356 393 339 394 q 322 396 318 396 q 314 400 314 414 q 314 428 317 433 q 339 430 366 428 q 392 426 420 426 q 451 426 480 429 q 510 432 521 433 q 524 429 524 415 q 525 401 521 396 q 515 396 498 394 q 482 392 466 385 q 449 378 442 364 q 442 364 432 342 q 421 319 403 282 q 385 244 364 199 q 343 154 321 108 q 299 63 281 24 q 259 -23 242 -58 q 226 -94 195 -132 q 157 -180 126 -196 q 94 -213 71 -213 q 40 -213 23 -196 q 6 -180 6 -161 q 6 -144 12 -133 q 18 -122 28 -115 q 67 -115 96 -110 q 124 -104 146 -88 q 169 -72 189 -39 q 203 -17 208 -4 q 213 8 223 30 q 211 54 191 94 q 171 135 148 180 q 126 226 106 266 q 86 307 74 333 q 61 359 61 359 q 55 374 42 382 q 28 390 16 393 q 4 396 0 396 q -4 402 -4 416 q -3 429 0 433 q 13 432 37 430 q 61 428 87 427 q 113 426 132 426 z"},"@":{"x_min":0,"x_max":749,"ha":749,"o":"m 436 564 q 532 564 594 526 q 655 487 685 423 q 715 359 715 283 q 715 227 698 175 q 680 123 650 82 q 619 41 580 17 q 542 -7 499 -7 q 463 -7 433 12 q 403 32 403 77 q 403 83 404 91 q 405 99 407 105 q 398 87 376 61 q 355 35 327 15 q 299 -5 269 -5 q 244 -5 222 4 q 201 14 188 40 q 174 66 174 117 q 174 160 192 204 q 209 249 240 290 q 270 331 308 363 q 347 395 390 414 q 432 433 474 433 q 500 433 533 429 q 566 425 580 420 l 525 124 q 524 121 523 112 q 522 104 522 100 q 522 99 522 96 q 522 85 524 70 q 527 54 545 54 q 563 54 585 72 q 607 89 627 120 q 647 150 660 190 q 672 230 672 276 q 672 342 648 399 q 625 456 573 490 q 521 525 436 525 q 361 525 298 494 q 236 462 190 410 q 143 357 118 294 q 92 230 92 166 q 92 109 110 62 q 129 15 159 -20 q 189 -54 224 -75 q 250 -91 268 -96 q 285 -100 299 -102 q 299 -108 286 -114 q 272 -121 260 -121 q 247 -121 236 -118 q 226 -116 216 -112 q 171 -95 132 -57 q 93 -19 69 36 q 45 92 45 161 q 45 233 74 304 q 103 375 156 434 q 208 493 280 528 q 351 564 436 564 z m 433 380 q 403 380 378 360 q 352 339 333 304 q 314 270 304 228 q 294 187 294 145 q 294 118 306 105 q 317 92 333 92 q 364 92 393 140 q 422 188 438 268 l 458 367 q 451 375 447 378 q 443 380 433 380 z"},".":{"x_min":0,"x_max":317,"ha":317,"o":"m 106 214 q 112 228 125 232 q 140 237 157 224 l 244 163 q 268 145 252 105 l 213 12 q 206 -4 190 -10 q 176 -16 153 1 l 78 58 q 51 79 62 107 z"},"p":{"x_min":0,"x_max":540,"ha":540,"o":"m 318 438 q 377 438 420 408 q 463 379 486 331 q 509 283 509 229 q 509 173 487 129 q 465 85 430 54 q 394 24 352 8 q 310 -8 270 -8 q 250 -8 233 -4 q 216 1 213 1 q 210 1 210 -15 l 210 -67 q 210 -98 211 -121 q 212 -144 218 -159 q 221 -165 234 -169 q 246 -173 260 -174 q 275 -176 281 -177 q 285 -182 284 -195 q 284 -208 281 -213 q 253 -210 216 -208 q 178 -206 147 -206 q 116 -206 79 -208 q 42 -210 13 -213 q 10 -208 10 -195 q 9 -182 13 -177 q 20 -176 34 -174 q 48 -173 61 -169 q 74 -165 76 -159 q 81 -146 82 -126 q 83 -106 83 -80 q 83 -77 83 -74 q 83 -70 83 -67 l 83 254 q 83 259 82 276 q 82 292 80 310 q 79 327 75 334 q 71 342 58 346 q 44 350 30 352 q 17 354 13 354 q 12 355 11 362 q 10 370 11 377 q 12 384 14 384 q 51 387 88 396 q 124 405 155 416 q 186 427 204 436 q 209 435 215 428 q 221 421 221 419 q 220 415 216 406 q 212 398 212 386 q 212 376 216 380 q 238 403 267 420 q 296 438 318 438 z m 264 366 q 237 366 224 354 q 210 343 210 339 l 210 94 q 210 65 231 50 q 252 35 277 35 q 293 35 314 51 q 336 67 352 102 q 369 138 369 194 q 369 270 346 318 q 323 366 264 366 z"},"X":{"x_min":0,"x_max":693,"ha":693,"o":"m 172 641 q 208 641 246 643 q 283 645 312 646 q 313 643 314 634 q 314 626 314 618 q 313 610 310 610 q 303 610 291 608 q 279 606 270 602 q 260 598 259 590 q 259 579 266 568 l 375 404 q 397 432 424 464 q 450 497 472 526 q 495 554 502 570 q 505 576 505 580 q 505 593 481 602 q 457 610 432 610 q 430 610 428 618 q 427 626 428 635 q 429 644 431 646 q 457 643 496 642 q 534 640 561 640 q 636 640 678 646 q 680 643 680 634 q 681 626 680 618 q 680 610 677 610 q 673 610 655 608 q 637 605 613 594 q 589 584 568 559 l 401 360 q 432 314 464 266 q 496 218 524 177 q 552 136 572 108 q 591 80 597 74 q 611 57 631 48 q 651 39 669 36 q 687 32 694 32 q 697 25 698 14 q 698 2 694 -4 q 675 -3 646 -2 q 616 0 587 1 q 558 2 538 2 q 497 2 461 0 q 425 -2 384 -4 q 382 -1 381 8 q 380 16 382 24 q 383 32 385 32 q 391 32 404 36 q 417 39 428 45 q 440 51 440 60 q 440 66 437 70 l 307 267 q 301 260 284 236 q 267 213 245 184 q 223 154 204 126 q 184 98 173 81 q 165 68 165 64 q 165 53 179 46 q 193 38 212 35 q 232 32 246 32 q 250 27 250 16 q 251 4 249 -4 q 233 -3 210 -2 q 186 0 162 1 q 138 2 120 2 q 82 2 53 0 q 24 -2 -5 -4 q -9 1 -9 14 q -9 27 -5 32 q -1 32 18 34 q 38 37 62 46 q 86 56 101 77 l 275 314 l 138 524 q 125 544 111 566 q 97 589 86 596 q 79 601 66 604 q 52 607 38 608 q 25 610 19 610 q 17 610 16 618 q 15 626 16 635 q 17 644 19 646 q 55 645 96 643 q 136 641 172 641 z"},"*":{"x_min":0,"x_max":430,"ha":430,"o":"m 281 604 q 297 621 317 622 q 337 622 348 611 q 360 599 362 580 q 363 561 347 544 q 332 527 315 521 q 298 515 282 511 q 266 507 252 494 q 252 494 249 490 q 246 485 246 481 q 246 477 253 474 q 270 466 286 466 q 301 466 318 466 q 336 465 357 455 q 378 446 385 426 q 392 407 385 393 q 378 378 360 371 q 342 364 321 373 q 300 383 289 396 q 278 410 270 424 q 261 438 244 447 q 244 447 238 450 q 233 452 230 450 q 227 449 226 442 q 225 429 227 418 q 229 408 233 397 q 236 385 239 372 q 242 358 240 339 q 238 317 222 304 q 205 292 190 293 q 174 296 162 311 q 149 326 151 348 q 154 372 164 386 q 174 400 184 413 q 195 426 198 444 q 198 444 198 450 q 198 455 196 458 q 195 460 187 459 q 169 455 156 446 q 144 438 130 429 q 115 420 92 414 q 70 409 54 420 q 37 432 34 447 q 32 463 42 480 q 52 496 74 501 q 93 506 108 502 q 122 499 135 494 q 145 490 156 487 q 167 484 180 486 q 180 486 186 487 q 192 488 193 492 q 194 495 190 502 q 189 503 189 503 q 180 519 168 528 q 155 537 142 548 q 129 559 117 579 q 105 599 111 619 q 117 639 130 646 q 145 654 164 649 q 182 644 194 624 q 204 607 205 592 q 206 578 205 565 q 205 553 206 542 q 206 531 212 519 q 212 519 215 514 q 218 509 222 508 q 224 508 226 508 q 228 509 231 512 q 244 526 249 540 q 254 555 260 571 q 266 587 281 604 z"},"Y":{"x_min":0,"x_max":609,"ha":609,"o":"m 228 142 l 228 277 q 228 285 222 297 q 214 313 200 340 q 185 368 168 400 q 151 431 136 460 q 120 488 110 506 q 100 524 100 524 q 89 544 84 554 q 79 563 70 578 q 59 596 36 602 q 13 609 3 610 q -1 615 0 628 q 0 642 3 646 q 32 643 72 642 q 112 640 143 640 q 174 640 214 642 q 253 643 281 646 q 284 642 284 628 q 285 615 281 610 q 275 610 260 608 q 246 607 234 602 q 221 596 221 584 q 221 581 223 577 q 225 573 228 568 l 345 353 q 347 351 360 372 q 373 394 392 428 q 412 461 432 498 q 452 535 468 564 q 471 570 472 576 q 473 582 473 587 q 473 596 458 601 q 442 606 425 608 q 408 610 401 610 q 397 615 398 628 q 398 642 401 646 q 436 643 456 642 q 477 640 511 640 q 543 640 566 642 q 590 645 620 646 q 623 642 624 628 q 624 615 620 610 q 614 610 600 608 q 585 607 570 602 q 556 597 548 586 q 542 577 525 550 q 508 523 486 486 q 463 450 440 412 q 416 373 397 340 q 378 308 370 291 q 365 279 365 272 l 365 142 q 365 139 365 136 q 365 132 365 129 q 365 103 366 83 q 367 63 372 50 q 375 44 388 40 q 400 36 414 34 q 429 33 435 32 q 439 27 438 14 q 438 1 435 -4 q 407 -1 366 1 q 326 3 295 3 q 264 3 226 1 q 187 -1 158 -4 q 155 1 154 14 q 154 27 158 32 q 165 33 178 34 q 192 36 205 40 q 218 44 220 50 q 226 65 227 88 q 228 111 228 142 z"},"c":{"x_min":0,"x_max":436,"ha":436,"o":"m 403 373 q 403 352 388 332 q 373 312 347 312 q 328 312 314 328 q 300 343 288 356 q 260 387 222 387 q 201 387 186 366 q 170 345 162 314 q 153 282 153 252 q 153 184 176 144 q 198 105 230 89 q 263 73 294 73 q 337 73 362 90 q 387 106 403 122 q 408 121 412 115 q 415 109 415 104 q 415 91 412 86 q 403 73 379 50 q 355 27 318 9 q 282 -9 235 -9 q 181 -9 134 16 q 87 40 58 86 q 30 131 30 195 q 30 240 50 283 q 71 326 107 361 q 143 396 188 417 q 234 438 285 438 q 326 438 351 432 q 376 425 384 420 q 391 413 397 402 q 403 392 403 373 z"},"!":{"x_min":0,"x_max":263,"ha":263,"o":"m 135 671 q 159 671 177 653 q 195 635 195 604 q 195 585 180 435 q 173 377 166 322 q 160 268 154 216 q 151 191 134 191 q 114 191 111 217 q 104 273 98 324 q 91 376 86 424 q 79 498 74 543 q 70 588 70 605 q 70 634 89 653 q 107 671 135 671 z m 58 64 q 58 94 79 115 q 100 136 131 136 q 162 136 183 114 q 204 92 204 62 q 204 32 183 11 q 161 -11 132 -11 q 101 -11 80 11 q 58 35 58 64 z"},"/":{"x_min":0,"x_max":344,"ha":344,"o":"m 314 711 q 332 711 333 704 l 81 -182 q 80 -189 66 -196 q 60 -199 52 -201 q 43 -203 32 -203 q 27 -203 21 -201 q 17 -199 15 -198 l 14 -196 l 267 690 q 272 698 283 705 q 289 709 296 710 q 304 711 314 711 z"},"[":{"x_min":0,"x_max":361,"ha":361,"o":"m 126 713 q 186 713 236 718 q 286 722 326 729 q 331 729 332 723 l 332 720 q 332 713 323 695 q 323 694 322 694 q 322 694 322 694 q 303 684 232 672 q 225 671 220 670 q 215 669 212 668 l 212 -338 q 216 -339 222 -340 q 228 -341 238 -343 q 267 -348 288 -353 q 309 -358 322 -364 q 328 -367 331 -379 q 332 -382 332 -385 q 332 -388 332 -390 q 332 -396 326 -398 q 245 -383 126 -383 q 111 -381 108 -365 q 108 -363 108 -362 q 107 -361 107 -360 l 107 690 q 107 705 122 712 q 124 713 126 713 z"},"6":{"x_min":0,"x_max":532,"ha":532,"o":"m 290 396 q 338 396 378 377 q 419 358 444 316 q 469 273 469 202 q 469 145 439 98 q 409 51 362 22 q 315 -6 263 -6 q 209 -6 164 28 q 118 62 90 118 q 63 173 63 236 q 63 290 80 338 q 96 387 122 428 q 148 469 177 499 q 219 544 264 571 q 310 598 352 612 q 394 626 427 630 q 433 626 434 619 q 436 612 434 604 q 342 566 288 506 q 233 445 210 371 q 229 382 250 389 q 272 396 290 396 z m 198 319 q 194 294 192 265 q 191 236 191 216 q 191 175 198 133 q 206 91 224 63 q 242 35 273 35 q 302 35 322 74 q 341 112 341 178 q 341 220 332 256 q 323 293 302 316 q 282 338 247 338 q 238 338 224 334 q 209 330 198 319 z"},"r":{"x_min":0,"x_max":438,"ha":438,"o":"m 355 437 q 374 437 390 433 q 406 429 416 420 q 419 416 423 402 q 427 388 427 372 q 427 356 420 338 q 412 320 399 308 q 386 295 369 295 q 356 295 346 304 q 336 312 327 319 q 319 327 312 334 q 304 340 291 340 q 271 340 256 324 q 242 309 234 290 q 226 272 226 261 l 226 142 q 226 115 227 90 q 228 65 234 50 q 237 44 252 40 q 267 36 284 34 q 300 33 306 32 q 310 27 310 14 q 309 1 306 -4 q 278 -1 236 1 q 193 3 162 3 q 131 3 94 1 q 58 -1 29 -4 q 26 1 26 14 q 25 27 29 32 q 36 33 50 34 q 63 36 76 40 q 89 44 91 50 q 97 65 98 88 q 99 111 99 142 l 99 254 q 99 259 98 276 q 98 292 96 310 q 94 327 90 334 q 86 342 72 346 q 59 350 46 352 q 33 354 29 354 q 28 355 27 362 q 26 370 27 377 q 28 384 30 384 q 67 387 104 396 q 140 405 171 416 q 202 427 220 436 q 225 435 231 428 q 237 421 237 419 q 236 415 234 399 q 231 383 229 366 q 227 349 227 342 q 227 338 230 338 q 232 338 233 339 q 245 360 262 383 q 278 406 301 422 q 324 437 355 437 z"},"2":{"x_min":0,"x_max":532,"ha":532,"o":"m 478 188 q 474 171 465 142 q 456 114 446 84 q 437 54 429 30 q 421 7 419 0 l 63 0 q 59 4 58 9 q 56 14 55 18 q 93 60 126 96 q 159 132 192 172 q 224 212 258 265 q 292 318 303 362 q 314 405 314 438 q 314 470 299 496 q 284 521 260 536 q 237 551 210 551 q 176 551 152 535 q 129 519 116 502 q 102 485 98 481 q 94 481 86 488 q 77 494 77 505 q 83 519 99 540 q 115 560 140 580 q 165 600 198 614 q 231 627 272 627 q 319 627 358 608 q 396 589 419 552 q 442 516 442 463 q 442 418 422 376 q 402 333 368 293 q 328 247 282 197 q 235 147 185 100 l 353 100 q 383 100 400 114 q 416 129 426 150 q 436 170 444 187 q 446 193 458 193 q 463 193 468 192 q 474 191 478 188 z"},"{":{"x_min":0,"x_max":397,"ha":397,"o":"m 129 153 l 129 179 q 212 227 199 293 q 194 319 166 394 q 140 462 142 533 q 145 668 226 731 q 249 749 261 734 q 275 715 258 698 q 194 631 197 557 q 198 532 231 477 q 284 391 266 294 q 251 206 182 166 q 251 126 266 38 q 284 -59 231 -145 q 198 -200 197 -225 q 194 -299 258 -366 q 275 -383 261 -402 q 249 -417 226 -399 q 145 -336 142 -201 q 140 -130 166 -62 q 194 13 199 39 q 212 105 129 153 z"},"9":{"x_min":0,"x_max":532,"ha":532,"o":"m 99 20 q 191 58 245 118 q 299 179 322 253 q 282 229 242 229 q 195 229 154 248 q 113 266 88 308 q 63 351 63 422 q 63 479 93 526 q 123 574 170 602 q 218 630 270 630 q 325 630 370 596 q 415 562 442 507 q 469 452 469 388 q 469 334 452 286 q 436 237 410 196 q 384 156 355 125 q 313 81 268 54 q 222 26 180 12 q 138 -1 105 -6 q 99 -1 98 6 q 98 13 99 20 z m 334 305 q 339 326 340 356 q 341 385 341 408 q 341 449 334 491 q 326 533 308 561 q 290 589 259 589 q 231 589 211 550 q 191 512 191 446 q 191 405 200 368 q 209 331 230 308 q 251 286 285 286 q 294 286 309 290 q 324 295 334 305 z"}," ":{"x_min":0,"x_max":292,"ha":292,"o":""},"I":{"x_min":0,"x_max":351,"ha":351,"o":"m 177 640 q 208 640 248 642 q 287 643 315 646 q 318 642 318 628 q 319 615 315 610 q 309 610 294 608 q 280 607 268 604 q 255 600 252 593 q 247 580 246 560 q 245 540 245 514 q 245 511 245 508 q 245 504 245 501 l 245 142 q 245 139 245 136 q 245 132 245 129 q 245 103 246 83 q 247 63 252 50 q 255 44 268 40 q 280 36 294 34 q 309 33 315 32 q 319 27 318 14 q 318 1 315 -4 q 287 -1 246 1 q 206 3 175 3 q 144 3 105 1 q 66 -1 37 -4 q 34 1 34 14 q 33 27 37 32 q 44 33 58 34 q 72 36 85 40 q 98 44 100 50 q 106 65 107 88 q 108 111 108 142 l 108 501 q 108 533 107 556 q 106 578 100 593 q 98 600 85 604 q 72 607 58 608 q 44 610 37 610 q 33 615 34 628 q 34 642 37 646 q 66 643 106 642 q 146 640 177 640 z"},"H":{"x_min":0,"x_max":723,"ha":723,"o":"m 177 640 q 208 640 248 642 q 287 643 315 646 q 318 642 318 628 q 319 615 315 610 q 309 610 294 608 q 280 607 268 604 q 255 600 252 593 q 247 580 246 560 q 245 540 245 514 q 245 511 245 508 q 245 504 245 501 l 245 362 q 245 361 246 360 q 246 359 246 359 q 275 358 304 357 q 332 356 365 356 q 392 356 422 357 q 453 358 479 359 q 479 359 480 360 q 481 362 481 363 l 480 501 q 480 533 479 556 q 478 578 472 593 q 470 600 457 604 q 444 607 430 608 q 417 610 410 610 q 406 615 406 628 q 407 642 410 646 q 439 643 478 642 q 518 640 549 640 q 580 640 620 642 q 659 643 687 646 q 690 642 690 628 q 691 615 687 610 q 681 610 666 608 q 652 607 640 604 q 627 600 624 593 q 619 580 618 560 q 617 540 617 514 q 617 511 617 508 q 617 504 617 501 l 617 142 q 617 139 617 136 q 617 132 617 129 q 617 103 618 83 q 619 63 624 50 q 627 44 640 40 q 652 36 666 34 q 681 33 687 32 q 691 27 690 14 q 690 1 687 -4 q 659 -1 618 1 q 578 3 547 3 q 516 3 478 1 q 439 -1 410 -4 q 407 1 406 14 q 406 27 410 32 q 417 33 430 34 q 444 36 457 40 q 470 44 472 50 q 478 65 479 88 q 480 111 480 142 l 480 303 q 480 305 479 306 q 478 308 478 308 q 451 309 423 310 q 395 310 365 310 q 311 310 286 310 q 261 309 254 308 q 247 307 245 306 q 244 305 244 304 q 245 302 245 302 l 245 142 q 245 139 245 136 q 245 132 245 129 q 245 103 246 83 q 247 63 252 50 q 255 44 268 40 q 280 36 294 34 q 309 33 315 32 q 319 27 318 14 q 318 1 315 -4 q 287 -1 246 1 q 206 3 175 3 q 144 3 105 1 q 66 -1 37 -4 q 34 1 34 14 q 33 27 37 32 q 44 33 58 34 q 72 36 85 40 q 98 44 100 50 q 106 65 107 88 q 108 111 108 142 l 108 501 q 108 533 107 556 q 106 578 100 593 q 98 600 85 604 q 72 607 58 608 q 44 610 37 610 q 33 615 34 628 q 34 642 37 646 q 66 643 106 642 q 146 640 177 640 z"},"4":{"x_min":0,"x_max":532,"ha":532,"o":"m 402 629 q 407 629 418 620 q 428 611 428 602 l 428 236 l 473 236 q 478 236 482 224 q 486 211 486 190 q 486 179 482 174 q 477 170 477 170 l 428 170 l 428 4 q 428 4 410 0 q 392 -5 361 -5 q 336 -5 320 -2 q 305 1 305 8 l 305 170 l 57 170 q 47 175 47 194 q 135 304 220 411 q 305 518 383 615 q 388 621 392 625 q 396 629 402 629 z m 305 455 l 131 236 l 305 236 z"},"~":{"x_min":0,"x_max":537,"ha":537,"o":"m 255 267 q 230 278 200 288 q 171 299 138 299 q 110 299 86 282 q 63 265 54 253 q 49 255 47 261 q 47 281 65 303 q 83 325 110 341 q 138 357 167 357 q 202 357 232 346 q 263 335 288 324 q 313 314 342 303 q 372 292 405 292 q 434 292 457 309 q 480 326 489 338 q 494 336 496 330 q 496 311 478 288 q 460 265 432 249 q 405 233 376 233 q 342 233 312 245 q 281 257 255 267 z"},"D":{"x_min":0,"x_max":743,"ha":743,"o":"m 327 645 q 440 645 524 608 q 609 570 656 499 q 702 428 702 328 q 702 242 672 180 q 643 117 590 76 q 538 36 468 16 q 399 -3 320 -3 q 312 -3 298 -3 q 283 -3 263 -3 q 235 -3 200 -3 q 166 -3 132 -3 q 99 -3 74 -3 q 48 -3 37 -3 q 34 2 34 15 q 33 28 37 33 q 44 34 58 36 q 72 37 85 40 q 98 44 100 50 q 106 65 107 88 q 108 111 108 142 l 108 501 q 108 533 107 556 q 106 578 100 593 q 98 600 85 603 q 72 606 58 607 q 44 608 37 608 q 33 613 34 627 q 34 641 37 645 q 70 643 108 642 q 146 642 177 642 q 208 642 246 643 q 284 644 327 645 z m 245 534 l 245 138 q 245 138 245 136 q 245 131 245 116 q 245 102 246 86 q 248 70 252 61 q 257 51 276 44 q 295 38 314 38 q 433 38 490 106 q 546 175 546 317 q 546 413 514 477 q 482 541 426 573 q 371 605 298 605 q 282 605 268 604 q 253 602 249 594 q 246 586 246 574 q 245 562 245 546 q 245 543 245 540 q 245 537 245 534 z"},"^":{"x_min":0,"x_max":381,"ha":381,"o":"m 182 653 q 194 653 201 640 q 226 597 244 564 q 262 531 280 500 q 299 468 325 427 q 325 419 319 414 q 313 409 307 409 q 286 429 264 452 q 242 475 224 496 q 205 517 194 530 q 182 543 182 543 q 182 543 170 530 q 159 517 140 496 q 122 475 100 452 q 78 429 57 409 q 51 409 44 414 q 37 419 37 427 q 64 468 82 500 q 101 531 120 564 q 138 597 163 640 q 170 653 182 653 z"},"0":{"x_min":0,"x_max":532,"ha":532,"o":"m 269 610 q 328 610 376 574 q 424 538 452 470 q 481 402 481 304 q 481 219 452 150 q 424 80 376 38 q 328 -3 269 -3 q 211 -3 161 33 q 111 69 81 138 q 51 207 51 304 q 51 368 68 424 q 86 479 116 521 q 146 563 186 586 q 225 610 269 610 z m 270 569 q 239 569 218 532 q 198 496 188 434 q 178 372 178 295 q 178 219 190 161 q 203 103 224 70 q 245 38 270 38 q 302 38 320 76 q 338 115 346 180 q 354 244 354 320 q 354 435 332 502 q 311 569 270 569 z"},"F":{"x_min":0,"x_max":536,"ha":536,"o":"m 177 642 q 189 642 220 642 q 250 643 290 644 q 329 645 370 646 q 411 646 444 647 q 478 648 495 648 q 500 611 508 574 q 516 537 523 504 q 521 502 513 500 q 505 499 500 499 q 488 499 485 507 q 469 548 446 576 q 424 605 379 605 l 298 605 q 282 605 268 604 q 253 602 249 594 q 246 586 246 574 q 245 562 245 546 q 245 543 245 540 q 245 537 245 534 l 245 355 q 245 351 258 348 q 271 345 287 345 l 338 345 q 367 345 382 350 q 398 355 407 370 q 416 385 424 413 q 426 421 436 421 q 449 421 454 416 l 454 229 q 450 225 437 225 q 424 225 423 232 q 414 267 405 278 q 396 289 389 292 q 372 299 315 299 q 302 299 286 298 q 269 297 257 294 q 245 291 245 285 l 245 142 q 245 139 245 136 q 245 132 245 129 q 245 103 246 83 q 247 63 252 50 q 255 44 270 40 q 285 36 302 34 q 318 33 324 32 q 328 27 328 14 q 327 1 324 -4 q 305 -2 278 0 q 251 1 224 2 q 196 3 175 3 q 144 3 105 1 q 66 -1 37 -4 q 34 1 34 14 q 33 27 37 32 q 44 33 58 34 q 72 36 85 40 q 98 44 100 50 q 106 65 107 88 q 108 111 108 142 l 108 501 q 108 533 107 556 q 106 578 100 593 q 98 600 85 603 q 72 606 58 607 q 44 608 37 608 q 33 613 34 627 q 34 641 37 645 q 70 643 108 642 q 146 642 177 642 z"},"`":{"x_min":0,"x_max":243,"ha":243,"o":""},"k":{"x_min":0,"x_max":576,"ha":576,"o":"m 213 142 q 213 111 214 88 q 215 65 221 50 q 224 44 236 40 q 249 36 264 34 q 278 33 284 32 q 288 27 288 14 q 287 1 284 -4 q 256 -1 218 1 q 181 3 150 3 q 119 3 82 1 q 45 -1 16 -4 q 13 1 12 14 q 12 27 16 32 q 23 33 37 34 q 51 36 64 40 q 77 44 79 50 q 84 63 85 83 q 86 103 86 129 q 86 132 86 136 q 86 139 86 142 l 86 545 q 86 558 85 568 q 84 579 79 592 q 77 598 65 602 q 53 606 40 608 q 27 609 21 609 q 18 609 18 624 q 17 638 21 641 q 76 646 118 655 q 159 664 184 672 q 208 679 209 679 q 214 678 218 672 q 223 666 224 662 q 224 662 222 645 q 219 628 216 605 q 213 582 213 562 l 212 230 q 225 235 243 246 q 261 258 286 280 q 337 324 354 344 q 371 363 371 374 q 371 380 360 385 q 348 390 333 393 q 318 396 309 396 q 307 403 307 416 q 307 428 311 429 q 311 429 325 428 q 339 428 360 427 q 380 426 402 426 q 424 425 439 425 q 465 425 490 427 q 514 429 547 430 q 552 423 550 410 q 549 398 544 396 q 522 394 494 386 q 467 379 448 365 q 432 354 398 322 q 364 290 319 250 q 345 220 362 200 q 380 181 394 166 q 407 151 422 135 q 436 119 457 96 q 484 66 504 54 q 525 41 542 38 q 559 35 574 35 q 579 27 577 18 q 575 8 574 6 q 562 2 532 -2 q 503 -6 475 -6 q 432 -6 398 10 q 363 27 341 52 q 341 52 322 72 q 304 93 277 124 q 250 154 226 184 q 223 189 218 192 q 213 196 213 196 z"},"u":{"x_min":0,"x_max":552,"ha":552,"o":"m 347 254 q 347 259 346 276 q 346 292 344 310 q 342 327 338 334 q 334 342 320 346 q 307 350 294 352 q 281 354 277 354 q 276 355 275 362 q 274 370 275 377 q 276 384 278 384 q 315 387 352 396 q 388 405 419 416 q 450 427 468 436 q 473 435 479 428 q 485 421 485 419 q 483 413 480 394 q 476 374 475 363 q 474 347 474 327 q 474 307 474 302 l 474 105 q 474 94 475 85 q 476 76 483 68 q 489 61 503 60 q 517 59 525 59 q 526 59 527 59 q 530 56 530 46 q 530 36 524 27 q 502 25 476 20 q 449 14 424 8 q 398 2 380 -2 q 361 -7 356 -7 q 347 -7 347 17 l 347 32 q 347 34 346 36 q 346 39 344 37 q 336 32 316 22 q 297 11 269 3 q 241 -5 207 -5 q 160 -5 132 20 q 105 44 94 84 q 82 124 82 170 l 82 254 q 82 259 82 276 q 81 292 79 310 q 77 327 73 334 q 69 342 56 346 q 42 350 28 352 q 15 354 11 354 q 10 355 9 362 q 8 370 9 377 q 10 384 12 384 q 49 387 86 396 q 123 405 154 416 q 185 427 203 436 q 208 435 214 428 q 219 421 219 419 q 217 413 214 394 q 210 374 209 363 q 208 347 208 327 q 208 307 208 302 l 208 214 q 208 136 224 96 q 239 55 285 55 q 305 55 326 68 q 347 80 347 91 z"},"]":{"x_min":0,"x_max":361,"ha":361,"o":"m 235 713 q 238 713 240 712 q 254 706 254 690 l 254 -360 q 254 -361 254 -362 q 253 -363 253 -365 q 250 -381 235 -383 q 116 -383 35 -398 q 29 -396 29 -390 q 29 -387 31 -379 q 34 -366 39 -364 q 52 -358 73 -353 q 94 -348 123 -343 q 133 -341 139 -340 q 145 -339 149 -338 l 149 668 q 146 669 141 670 q 136 671 129 672 q 58 684 39 694 q 39 694 38 694 q 38 694 38 695 q 29 713 29 720 q 29 721 30 722 q 30 722 30 723 q 32 729 35 729 q 75 722 125 718 q 175 713 235 713 z"},"U":{"x_min":0,"x_max":712,"ha":712,"o":"m 162 640 q 193 640 232 642 q 271 643 299 646 q 302 642 302 628 q 303 615 299 610 q 293 610 279 608 q 265 607 252 604 q 240 600 237 593 q 231 578 230 556 q 229 533 229 501 l 229 322 q 229 273 233 234 q 237 194 253 155 q 272 112 300 92 q 327 73 355 68 q 383 62 402 62 q 441 62 477 86 q 513 111 536 164 q 560 217 560 302 l 560 468 q 560 500 556 536 q 552 572 546 587 q 542 597 527 602 q 512 606 496 608 q 480 610 473 610 q 469 615 470 628 q 470 642 473 646 q 508 643 534 642 q 561 640 595 640 q 627 640 653 642 q 679 645 709 646 q 712 642 712 628 q 713 615 709 610 q 703 610 686 608 q 669 607 654 602 q 638 598 634 587 q 628 572 624 536 q 620 501 620 469 l 620 279 q 620 180 582 116 q 545 52 484 22 q 424 -9 353 -9 q 292 -9 237 12 q 182 33 147 77 q 119 113 106 166 q 92 218 92 294 l 92 501 q 92 533 91 556 q 90 578 84 593 q 82 600 69 604 q 56 607 42 608 q 29 610 22 610 q 18 615 18 628 q 19 642 22 646 q 51 643 91 642 q 131 640 162 640 z"},"o":{"x_min":0,"x_max":519,"ha":519,"o":"m 259 437 q 327 437 378 408 q 430 380 459 331 q 488 282 488 220 q 488 159 458 107 q 428 55 377 24 q 326 -7 261 -7 q 193 -7 141 22 q 89 51 60 101 q 31 151 31 212 q 31 274 62 325 q 92 376 144 406 q 195 437 259 437 z m 248 396 q 221 396 206 380 q 190 365 182 340 q 175 315 172 286 q 170 258 170 231 q 170 199 176 164 q 182 130 194 100 q 206 71 225 52 q 244 34 271 34 q 298 34 314 50 q 329 65 337 90 q 345 114 348 142 q 350 171 350 197 q 350 230 344 264 q 338 299 326 329 q 313 359 294 378 q 275 396 248 396 z"},"N":{"x_min":0,"x_max":742,"ha":742,"o":"m 147 640 q 173 640 202 642 q 231 643 254 646 q 268 618 302 572 q 335 527 380 472 q 424 416 473 357 q 522 298 567 242 q 569 247 569 260 q 569 272 569 282 l 569 465 q 569 484 568 510 q 566 537 564 560 q 562 583 558 590 q 554 599 537 604 q 520 608 502 610 q 485 611 479 611 q 478 611 476 626 q 475 640 479 647 q 513 646 538 643 q 564 640 598 640 q 630 640 661 643 q 692 646 721 647 q 723 643 724 630 q 724 618 719 610 q 715 610 697 609 q 679 608 660 604 q 642 599 638 588 q 636 581 634 559 q 631 537 630 512 q 629 486 629 468 l 629 136 q 629 93 630 65 q 632 37 633 -1 q 631 -3 620 -4 q 610 -5 608 -5 q 601 -5 594 2 q 586 8 578 18 l 180 507 l 180 153 q 180 127 184 98 q 187 70 191 59 q 195 50 213 44 q 231 38 249 36 q 267 33 271 33 q 276 26 276 14 q 275 1 273 -4 q 244 -2 213 1 q 182 4 150 4 q 116 4 90 1 q 65 -2 31 -4 q 27 3 28 18 q 30 32 31 32 q 37 32 54 35 q 72 38 88 44 q 105 49 109 58 q 114 69 118 98 q 121 128 121 156 l 121 502 q 121 522 117 549 q 113 576 103 590 q 99 597 86 601 q 72 605 58 608 q 45 610 39 610 q 37 610 36 618 q 34 626 34 635 q 35 644 37 646 q 60 645 86 642 q 113 640 147 640 z"},"+":{"x_min":0,"x_max":529,"ha":529,"o":"m 235 463 q 243 470 258 472 q 273 474 276 474 q 292 474 292 465 l 291 269 l 490 269 q 495 269 497 264 q 499 260 499 255 q 499 239 495 230 q 491 220 485 212 l 292 212 l 292 19 q 283 13 268 10 q 254 8 246 8 q 235 8 235 16 l 235 212 l 36 212 q 30 212 30 228 q 30 231 32 246 q 34 260 40 269 l 234 269 z"},"G":{"x_min":0,"x_max":705,"ha":705,"o":"m 487 179 q 487 182 487 186 q 487 198 486 206 q 486 215 482 229 q 479 241 466 246 q 452 252 438 254 q 424 255 418 255 q 416 255 414 263 q 413 271 414 280 q 415 289 417 291 q 455 290 492 288 q 529 285 566 285 q 597 285 628 288 q 658 290 687 291 q 690 281 689 268 q 688 255 686 255 q 680 255 661 251 q 642 247 634 242 q 630 239 626 226 q 622 214 622 200 l 622 96 q 622 89 625 80 q 628 71 628 67 q 628 59 616 52 q 604 46 594 42 q 548 25 496 9 q 443 -7 375 -7 q 306 -7 245 17 q 184 41 138 84 q 91 127 65 186 q 39 245 39 314 q 39 383 66 444 q 92 504 138 551 q 185 598 246 624 q 307 651 377 651 q 425 651 481 646 q 537 642 580 633 q 581 629 586 608 q 591 586 598 560 q 604 533 608 512 q 613 490 613 485 q 613 481 605 476 q 597 471 588 471 q 584 471 580 472 q 577 472 574 475 q 570 489 560 512 q 550 534 529 556 q 508 579 474 594 q 440 609 388 609 q 334 609 296 586 q 259 564 237 526 q 215 487 205 438 q 195 390 195 339 q 195 282 208 228 q 221 174 247 130 q 273 86 312 60 q 350 35 402 35 q 430 35 448 40 q 466 45 479 51 q 482 53 484 56 q 487 58 487 65 z"},"q":{"x_min":0,"x_max":521,"ha":521,"o":"m 293 436 q 312 436 333 430 q 354 425 374 419 q 394 413 408 413 q 424 413 432 416 q 439 419 443 420 q 448 419 458 410 q 467 401 467 396 q 463 387 459 360 q 455 334 455 284 l 455 -67 q 455 -98 456 -121 q 457 -144 463 -159 q 466 -165 478 -169 q 491 -173 505 -174 q 519 -176 525 -177 q 529 -182 528 -195 q 528 -208 525 -213 q 497 -210 460 -208 q 423 -206 392 -206 q 361 -206 324 -208 q 287 -210 258 -213 q 255 -208 254 -195 q 254 -182 258 -177 q 265 -176 278 -174 q 292 -173 305 -169 q 318 -165 320 -159 q 326 -144 327 -121 q 328 -98 328 -67 l 328 17 q 328 22 328 28 q 327 33 322 29 q 315 24 297 15 q 279 6 256 -1 q 234 -8 211 -8 q 162 -8 121 19 q 80 46 56 91 q 31 136 31 188 q 31 245 54 291 q 77 337 116 370 q 154 402 200 419 q 247 436 293 436 z m 256 385 q 222 385 204 362 q 185 340 178 306 q 170 272 170 237 q 170 197 180 154 q 189 112 211 84 q 233 55 270 55 q 296 55 312 65 q 328 75 328 78 l 328 336 q 328 341 320 353 q 313 365 298 375 q 282 385 256 385 z"},"d":{"x_min":0,"x_max":534,"ha":534,"o":"m 287 436 q 303 436 312 436 q 320 435 326 434 q 329 434 330 442 q 331 450 331 456 l 331 545 q 331 559 330 569 q 329 579 324 592 q 322 598 310 602 q 298 606 285 608 q 272 609 266 609 q 263 609 262 624 q 262 638 266 641 q 321 646 362 655 q 404 664 428 672 q 453 679 454 679 q 459 678 464 672 q 468 666 469 662 q 469 662 464 633 q 458 604 458 563 l 458 105 q 458 94 459 85 q 460 76 467 68 q 473 61 487 60 q 501 59 509 59 q 510 59 511 59 q 514 56 514 46 q 514 36 508 27 q 486 25 460 20 q 433 14 408 8 q 382 2 364 -2 q 345 -7 340 -7 q 331 -7 331 17 l 331 32 q 331 34 330 36 q 330 39 328 37 q 320 32 302 21 q 283 10 258 1 q 234 -8 208 -8 q 161 -8 120 19 q 80 46 56 92 q 31 138 31 195 q 31 257 58 302 q 85 348 126 378 q 167 407 210 422 q 254 436 287 436 z m 255 386 q 224 386 206 365 q 187 344 178 310 q 170 276 170 237 q 170 157 196 106 q 223 55 269 55 q 283 55 297 62 q 311 68 321 76 q 331 85 331 91 l 331 342 q 331 356 308 371 q 286 386 255 386 z"},"1":{"x_min":0,"x_max":532,"ha":532,"o":"m 218 142 l 218 471 q 218 503 214 512 q 209 522 197 522 q 190 522 166 516 q 143 509 127 500 q 114 507 114 519 q 114 519 114 520 q 114 523 114 526 q 114 529 116 530 q 172 554 222 576 q 273 599 306 614 q 339 628 340 628 l 342 628 q 347 628 350 620 q 353 613 354 609 q 354 609 350 587 q 345 565 345 518 l 345 142 q 345 111 346 88 q 347 65 353 50 q 356 44 368 40 q 381 36 395 34 q 409 33 415 32 q 419 27 418 14 q 418 1 415 -4 q 387 -1 350 1 q 312 3 281 3 q 250 3 213 1 q 176 -1 147 -4 q 144 1 144 14 q 143 27 147 32 q 154 33 168 34 q 182 36 195 40 q 208 44 210 50 q 216 65 217 88 q 218 111 218 142 z"},"5":{"x_min":0,"x_max":532,"ha":532,"o":"m 271 413 q 319 413 364 388 q 409 362 438 320 q 466 277 466 225 q 466 173 444 130 q 422 88 385 58 q 348 27 302 10 q 257 -6 210 -6 q 163 -6 128 6 q 93 18 78 30 q 73 37 70 51 q 66 65 66 72 q 66 89 79 106 q 92 124 117 124 q 137 124 152 108 q 168 92 180 78 q 194 62 212 48 q 230 35 249 35 q 295 35 318 72 q 341 108 341 174 q 341 219 319 252 q 297 284 266 302 q 234 320 206 320 q 160 320 142 315 q 124 310 116 307 q 112 307 109 314 q 106 322 106 326 q 106 327 111 352 q 116 378 124 416 q 131 455 138 496 q 146 538 152 572 q 159 605 161 620 l 335 620 q 366 620 390 624 q 415 629 425 631 q 429 630 434 628 q 438 625 438 617 q 438 609 430 588 q 422 568 414 549 q 405 530 401 523 q 363 519 325 518 q 287 517 255 516 q 232 515 214 515 q 197 515 189 515 q 188 511 184 493 q 181 475 177 454 q 173 432 170 416 q 167 400 167 400 q 185 405 214 409 q 244 413 271 413 z"}}}
